<svg width="100" height="160" viewBox="0 0 100 160" fill="none" xmlns="http://www.w3.org/2000/svg">
<g clip-path="url(#clip0)">
<path d="M99 2H1V158.8H99V2Z" fill="white"/>
<path d="M3.11077 12.4534L1 14.544V25.52L3.11077 27.6107L10.9508 20.0694L3.11077 12.4534Z" fill="#5F76B7"/>
<path d="M7.93538 2H1V10.4373L3.11077 12.4533L10.9508 4.912L7.93538 2Z" fill="#5F76B7"/>
<path d="M88.9736 35.1519L96.8136 42.6933L98.9998 40.6026V29.7013L96.8136 27.6106L88.9736 35.1519Z" fill="#5F76B7"/>
<path d="M88.9736 50.2347L96.8136 57.776L98.9998 55.6854V44.8587L96.8136 42.6934L88.9736 50.2347Z" fill="#5F76B7"/>
<path d="M34.3198 27.6107L42.1598 20.0694L34.3198 12.4534L26.5552 20.0694L34.3198 27.6107Z" fill="#5F76B7"/>
<path d="M88.9736 80.4747L96.8136 88.016L98.9998 85.9254V75.024L96.8136 72.9333L88.9736 80.4747Z" fill="#5F76B7"/>
<path d="M65.6046 27.6107L73.3693 20.0694L65.6046 12.4534L57.7646 20.0694L65.6046 27.6107Z" fill="#5F76B7"/>
<path d="M88.9736 20.0694L96.8136 27.6107L98.9998 25.4454V14.6187L96.8136 12.4534L88.9736 20.0694Z" fill="#5F76B7"/>
<path d="M50.0002 27.6107L57.7648 20.0694L50.0002 12.4534L42.1602 20.0694L50.0002 27.6107Z" fill="#5F76B7"/>
<path d="M88.9736 95.5575L96.8136 103.099L98.9998 101.008V90.1814L96.8136 88.0161L88.9736 95.5575Z" fill="#5F76B7"/>
<path d="M81.2091 27.6107L88.9737 20.0694L81.2091 12.4534L73.3691 20.0694L81.2091 27.6107Z" fill="#5F76B7"/>
<path d="M88.9736 65.3921L96.8136 72.9335L98.9998 70.7681V59.9415L96.8136 57.7761L88.9736 65.3921Z" fill="#5F76B7"/>
<path d="M26.5552 156.037L29.4198 158.8H39.2952L42.1598 156.037L34.3198 148.496L26.5552 156.037Z" fill="#5F76B7"/>
<path d="M88.9736 110.715L96.8136 118.256L98.9998 116.091V105.264L96.8136 103.099L88.9736 110.715Z" fill="#5F76B7"/>
<path d="M57.7646 156.037L60.6293 158.8H70.5046L73.3693 156.037L65.6046 148.496L57.7646 156.037Z" fill="#5F76B7"/>
<path d="M10.9507 156.037L13.8153 158.8H23.6907L26.5553 156.037L18.7153 148.496L10.9507 156.037Z" fill="#5F76B7"/>
<path d="M42.1602 156.037L45.0248 158.8H54.9002L57.7648 156.037L50.0002 148.496L42.1602 156.037Z" fill="#5F76B7"/>
<path d="M73.3691 156.037L76.2338 158.8H86.1091L88.9737 156.037L81.2091 148.496L73.3691 156.037Z" fill="#5F76B7"/>
<path d="M88.9736 125.797L96.8136 133.339L98.9998 131.248V120.347L96.8136 118.256L88.9736 125.797Z" fill="#5F76B7"/>
<path d="M88.9736 140.88L96.8136 148.496L98.9998 146.331V135.504L96.8136 133.339L88.9736 140.88Z" fill="#5F76B7"/>
<path d="M96.8136 148.496L88.9736 156.037L91.9136 158.8H98.9998V150.587L96.8136 148.496Z" fill="#5F76B7"/>
<path d="M18.7153 12.4533L26.5553 4.912L23.5399 2H13.9661L10.9507 4.912L18.7153 12.4533Z" fill="#5F76B7"/>
<path d="M34.3198 12.4533L42.1598 4.912L39.1444 2H29.5706L26.5552 4.912L34.3198 12.4533Z" fill="#5F76B7"/>
<path d="M1 150.512V158.8H8.08615L10.9508 156.037L3.11077 148.496L1 150.512Z" fill="#5F76B7"/>
<path d="M57.7646 125.797L65.6046 133.339L73.3693 125.797L65.6046 118.256L57.7646 125.797Z" fill="#5F76B7"/>
<path d="M42.1602 110.715L50.0002 118.256L57.7648 110.715L50.0002 103.099L42.1602 110.715Z" fill="#5F76B7"/>
<path d="M50.0002 88.0161L42.1602 95.5575L50.0002 103.099L57.7648 95.5575L50.0002 88.0161Z" fill="#5F76B7"/>
<path d="M96.8136 12.4533L98.9998 10.3627V2H91.989L88.9736 4.912L96.8136 12.4533Z" fill="#5F76B7"/>
<path d="M81.2091 12.4533L88.9737 4.912L85.9584 2H76.3845L73.3691 4.912L81.2091 12.4533Z" fill="#5F76B7"/>
<path d="M50.0002 12.4533L57.7648 4.912L54.7494 2H45.1755L42.1602 4.912L50.0002 12.4533Z" fill="#5F76B7"/>
<path d="M65.6046 12.4533L73.3693 4.912L70.3539 2H60.78L57.7646 4.912L65.6046 12.4533Z" fill="#5F76B7"/>
<path d="M42.1602 125.797L50.0002 133.339L57.7648 125.797L50.0002 118.256L42.1602 125.797Z" fill="#5F76B7"/>
<path d="M34.3198 103.099L26.5552 110.715L34.3198 118.256L42.1598 110.715L34.3198 103.099Z" fill="#5F76B7"/>
<path d="M26.5552 125.797L34.3198 133.339L42.1598 125.797L34.3198 118.256L26.5552 125.797Z" fill="#5F76B7"/>
<path d="M34.3198 88.0161L26.5552 95.5575L34.3198 103.099L42.1598 95.5575L34.3198 88.0161Z" fill="#5F76B7"/>
<path d="M50.0002 72.9333L42.1602 80.4747L50.0002 88.016L57.7648 80.4747L50.0002 72.9333Z" fill="#5F76B7"/>
<path d="M18.7153 12.4534L10.9507 20.0694L18.7153 27.6107L26.5553 20.0694L18.7153 12.4534Z" fill="#5F76B7"/>
<path d="M50.0002 57.7761L42.1602 65.3921L50.0002 72.9335L57.7648 65.3921L50.0002 57.7761Z" fill="#5F76B7"/>
<path d="M34.3198 57.7761L26.5552 65.3921L34.3198 72.9335L42.1598 65.3921L34.3198 57.7761Z" fill="#5F76B7"/>
<path d="M34.3198 72.9333L26.5552 80.4747L34.3198 88.016L42.1598 80.4747L34.3198 72.9333Z" fill="#5F76B7"/>
<path d="M73.3691 125.797L81.2091 133.339L88.9737 125.797L81.2091 118.256L73.3691 125.797Z" fill="#5F76B7"/>
<path d="M18.7153 103.099L10.9507 110.715L18.7153 118.256L26.5553 110.715L18.7153 103.099Z" fill="#5F76B7"/>
<path d="M18.7153 88.0161L10.9507 95.5575L18.7153 103.099L26.5553 95.5575L18.7153 88.0161Z" fill="#5F76B7"/>
<path d="M18.7153 72.9333L10.9507 80.4747L18.7153 88.016L26.5553 80.4747L18.7153 72.9333Z" fill="#5F76B7"/>
<path d="M18.7153 57.7761L10.9507 65.3921L18.7153 72.9335L26.5553 65.3921L18.7153 57.7761Z" fill="#5F76B7"/>
<path d="M73.3691 140.88L81.2091 148.496L88.9737 140.88L81.2091 133.339L73.3691 140.88Z" fill="#5F76B7"/>
<path d="M42.1602 140.88L50.0002 148.496L57.7648 140.88L50.0002 133.339L42.1602 140.88Z" fill="#5F76B7"/>
<path d="M57.7646 140.88L65.6046 148.496L73.3693 140.88L65.6046 133.339L57.7646 140.88Z" fill="#5F76B7"/>
<path d="M26.5552 140.88L34.3198 148.496L42.1598 140.88L34.3198 133.339L26.5552 140.88Z" fill="#5F76B7"/>
<path d="M10.9507 140.88L18.7153 148.496L26.5553 140.88L18.7153 133.339L10.9507 140.88Z" fill="#5F76B7"/>
<path d="M18.7153 118.256L10.9507 125.797L18.7153 133.339L26.5553 125.797L18.7153 118.256Z" fill="#5F76B7"/>
<path d="M57.7646 80.4747L65.6046 88.016L73.3693 80.4747L65.6046 72.9333L57.7646 80.4747Z" fill="#5F76B7"/>
<path d="M57.7646 95.5575L65.6046 103.099L73.3693 95.5575L65.6046 88.0161L57.7646 95.5575Z" fill="#5F76B7"/>
<path d="M57.7646 65.3921L65.6046 72.9335L73.3693 65.3921L65.6046 57.7761L57.7646 65.3921Z" fill="#5F76B7"/>
<path d="M57.7646 110.715L65.6046 118.256L73.3693 110.715L65.6046 103.099L57.7646 110.715Z" fill="#5F76B7"/>
<path d="M57.7646 50.2347L65.6046 57.776L73.3693 50.2347L65.6046 42.6934L57.7646 50.2347Z" fill="#5F76B7"/>
<path d="M34.3198 42.6934L26.5552 50.2347L34.3198 57.776L42.1598 50.2347L34.3198 42.6934Z" fill="#5F76B7"/>
<path d="M3.11077 133.339L1 135.429V146.405L3.11077 148.496L10.9508 140.88L3.11077 133.339Z" fill="#5F76B7"/>
<path d="M50.0002 42.6934L42.1602 50.2347L50.0002 57.776L57.7648 50.2347L50.0002 42.6934Z" fill="#5F76B7"/>
<path d="M18.7153 42.6934L10.9507 50.2347L18.7153 57.776L26.5553 50.2347L18.7153 42.6934Z" fill="#5F76B7"/>
<path d="M18.7153 27.6106L10.9507 35.1519L18.7153 42.6933L26.5553 35.1519L18.7153 27.6106Z" fill="#5F76B7"/>
<path d="M3.11077 57.7761L1 59.8668V70.8428L3.11077 72.9335L10.9508 65.3921L3.11077 57.7761Z" fill="#5F76B7"/>
<path d="M3.11077 27.6106L1 29.6266V40.6773L3.11077 42.6933L10.9508 35.1519L3.11077 27.6106Z" fill="#5F76B7"/>
<path d="M3.11077 72.9333L1 74.9493V86L3.11077 88.016L10.9508 80.4747L3.11077 72.9333Z" fill="#5F76B7"/>
<path d="M3.11077 42.6934L1 44.784V55.76L3.11077 57.776L10.9508 50.2347L3.11077 42.6934Z" fill="#5F76B7"/>
<path d="M3.11077 118.256L1 120.272V131.323L3.11077 133.339L10.9508 125.797L3.11077 118.256Z" fill="#5F76B7"/>
<path d="M3.11077 88.0161L1 90.1068V101.083L3.11077 103.099L10.9508 95.5575L3.11077 88.0161Z" fill="#5F76B7"/>
<path d="M3.11077 103.099L1 105.189V116.165L3.11077 118.256L10.9508 110.715L3.11077 103.099Z" fill="#5F76B7"/>
<path d="M34.3198 27.6106L26.5552 35.1519L34.3198 42.6933L42.1598 35.1519L34.3198 27.6106Z" fill="#5F76B7"/>
<path d="M73.3691 65.3921L81.2091 72.9335L88.9737 65.3921L81.2091 57.7761L73.3691 65.3921Z" fill="#5F76B7"/>
<path d="M73.3691 110.715L81.2091 118.256L88.9737 110.715L81.2091 103.099L73.3691 110.715Z" fill="#5F76B7"/>
<path d="M73.3691 80.4747L81.2091 88.016L88.9737 80.4747L81.2091 72.9333L73.3691 80.4747Z" fill="#5F76B7"/>
<path d="M73.3691 95.5575L81.2091 103.099L88.9737 95.5575L81.2091 88.0161L73.3691 95.5575Z" fill="#5F76B7"/>
<path d="M73.3691 35.1519L81.2091 42.6933L88.9737 35.1519L81.2091 27.6106L73.3691 35.1519Z" fill="#5F76B7"/>
<path d="M73.3691 50.2347L81.2091 57.776L88.9737 50.2347L81.2091 42.6934L73.3691 50.2347Z" fill="#5F76B7"/>
<path d="M65.6046 42.6933L73.3693 35.1519L65.6046 27.6106L57.7646 35.1519L65.6046 42.6933Z" fill="#5F76B7"/>
<path d="M50.0002 42.6933L57.7648 35.1519L50.0002 27.6106L42.1602 35.1519L50.0002 42.6933Z" fill="#5F76B7"/>
</g>
<path fill-rule="evenodd" clip-rule="evenodd" d="M10 0C4.47715 0 0 4.47715 0 10V150C0 155.523 4.47716 160 10 160H90C95.5229 160 100 155.523 100 150V10C100 4.47715 95.5228 0 90 0H10ZM12.1538 6.09521C8.84011 6.09521 6.15382 8.78151 6.15382 12.0952V147.905C6.15382 151.218 8.84011 153.905 12.1538 153.905H87.8461C91.1598 153.905 93.8461 151.218 93.8461 147.905V12.0952C93.8461 8.78151 91.1598 6.09521 87.8461 6.09521H12.1538Z" fill="white"/>
<rect x="6.65381" y="6.59521" width="86.6923" height="146.81" rx="5.5" stroke="#5F76B7"/>
<defs>
<clipPath id="clip0">
<rect x="1" y="2" width="98" height="156.8" rx="10" fill="white"/>
</clipPath>
</defs>
</svg>
