<svg width="60" height="60" viewBox="0 0 60 60" fill="none" xmlns="http://www.w3.org/2000/svg">
  <path d="M22.6172 5.30857V46.8399C22.6172 49.1131 24.4688 50.9765 26.7422 50.9765H54.7032C56.9765 50.9765 58.8281 49.1131 58.8281 46.8399V5.30857C58.8281 3.03516 56.9765 1.17188 54.7032 1.17188H26.7422C24.4805 1.17188 22.6172 3.03516 22.6172 5.30857Z" fill="white" />
  <path d="M22.6172 19.6524L52.0313 50.9883H54.7032C56.9765 50.9883 58.8281 49.1249 58.8281 46.8516V46.7929L22.6172 8.21484V19.6524Z" fill="#655BE1" />
  <path d="M42.4569 52.1603L21.457 29.7892V41.2267L31.7227 52.1603H42.4569Z" fill="white" />
  <path d="M26.7773 1.20703L58.8281 35.3203V23.918L37.4883 1.17188H26.7539L26.7773 1.20703Z" fill="#655BE1" />
  <path d="M48.2227 1.17188L58.8397 12.4805V5.30857C58.8397 3.03516 56.9881 1.17188 54.7148 1.17188H48.2227Z" fill="#655BE1" />
  <path d="M54.668 0H26.7891C23.8476 0 21.457 2.39063 21.457 5.33203V28.0195V31.4414V39.4688V42.8908V46.8281C21.457 49.7694 23.8476 52.1601 26.7891 52.1601H54.668C57.6092 52.1601 60 49.7694 60 46.8281V5.33203C60 2.39063 57.6092 0 54.668 0ZM57.6562 5.33203V9.51562L50.9295 2.34375H54.668C56.3203 2.34375 57.6562 3.67969 57.6562 5.33203ZM26.7891 49.8164C25.1367 49.8164 23.8008 48.4804 23.8008 46.8281V45.3869L27.9492 49.8164H26.7891ZM31.1601 49.8164L23.7891 41.9648V33.9375L38.6953 49.8164H31.1601ZM41.918 49.8164L23.8008 30.5156V22.6172L49.3359 49.8164H41.918ZM54.668 49.8164H52.547L23.8008 19.1836V11.168L57.6327 47.1915C57.4452 48.668 56.1915 49.8164 54.668 49.8164ZM57.6562 43.7929L23.8008 7.74608V5.33203C23.8008 3.85547 24.8789 2.625 26.2851 2.39063L57.6562 35.9531V43.7929ZM57.6562 32.5195L29.4492 2.34375H37.1601L57.6562 24.375V32.5195ZM40.3593 2.34375H47.7071L57.6562 12.9375V20.9297L40.3593 2.34375Z" fill="#161413" />
  <path d="M37.3828 54.6914V13.1483C37.3828 10.8749 35.5312 9.0116 33.2578 9.0116H5.29687C3.02344 9.0116 1.17188 10.8749 1.17188 13.1483V54.6914C1.17188 56.9646 3.02344 58.828 5.29687 58.828H33.2578C35.5195 58.828 37.3828 56.9646 37.3828 54.6914Z" fill="#F9F9F9" />
  <path d="M38.543 49.8163V41.6835V38.2733V30.2577V26.8358V18.7968V15.3866V13.1483C38.543 10.2187 36.1641 7.83972 33.2461 7.83972H31.4531H28.2422H20.625H18.293H16.6406H16.6289H5.29687C2.37891 7.83972 0 10.2187 0 13.1483V54.6914C0 57.6209 2.37891 59.9999 5.29687 59.9999H33.2578C36.1758 59.9999 38.5547 57.6209 38.5547 54.6914V52.16V49.8163H38.543ZM36.2109 54.6914C36.2109 56.3319 34.8867 57.6679 33.2461 57.6679H5.29687C3.66797 57.6679 2.33203 56.3319 2.33203 54.6914V13.1483C2.33203 11.5077 3.65625 10.1835 5.29687 10.1835H33.2578C34.8867 10.1835 36.2227 11.5194 36.2227 13.1483V54.6914H36.2109Z" fill="#161413" />
  <path d="M26.8946 47.4137H11.5548C9.46882 47.4137 8.03914 45.2693 8.90633 43.3711C9.23444 42.6444 9.63287 41.9413 10.0899 41.2499C11.379 39.328 13.7813 37.0546 17.3204 34.4296C19.4767 32.8241 20.8595 31.6053 21.4688 30.7733C22.0665 29.9413 22.3712 29.1561 22.3712 28.4061C22.3712 27.5975 22.0782 26.9061 21.4805 26.3319C20.8829 25.7577 20.1329 25.4764 19.2305 25.4764C18.2931 25.4764 17.5196 25.7694 16.922 26.3671C16.6524 26.6249 16.4297 26.9764 16.2423 27.4217C15.7267 28.6171 14.5548 29.4022 13.2657 29.2968L11.918 29.1913C9.83209 29.0155 8.50789 26.8358 9.39849 24.9608C9.55084 24.6327 9.72661 24.328 9.91412 24.0468C10.6876 22.8866 11.7774 21.9842 13.1837 21.3632C14.5899 20.7421 16.5352 20.4257 19.0196 20.4257C21.6095 20.4257 23.6368 20.7186 25.0782 21.3163C26.5196 21.9022 27.6563 22.8163 28.4766 24.035C29.3087 25.2655 29.7188 26.6366 29.7188 28.1483C29.7188 29.7655 29.2501 31.3124 28.3008 32.7772C27.3516 34.2538 25.629 35.871 23.1329 37.6288C21.6446 38.66 20.6602 39.3749 20.1563 39.7851L20.1446 39.7968C19.4884 40.3358 19.8751 41.3905 20.7188 41.3905H26.9063C28.5704 41.3905 29.9063 42.7384 29.9063 44.3907C29.8946 46.0665 28.5469 47.4137 26.8946 47.4137Z" fill="#161413" />
</svg>
