<svg width="100" height="37" fill="none" xmlns="http://www.w3.org/2000/svg">
  <g clip-path="url(#a)" fill="#161413">
    <path d="m51.628 12.244 4.758-.306c.108.774.307 1.35.633 1.765.524.648 1.248.972 2.207.972.705 0 1.266-.162 1.646-.504.362-.27.579-.702.579-1.152 0-.433-.2-.847-.543-1.117-.362-.324-1.212-.648-2.55-.936-2.19-.486-3.763-1.135-4.686-1.963a3.904 3.904 0 0 1-1.41-3.115c0-.828.252-1.656.723-2.34a4.752 4.752 0 0 1 2.17-1.73c.96-.413 2.298-.63 3.98-.63 2.063 0 3.636.379 4.722 1.153 1.085.756 1.736 1.98 1.935 3.655l-4.703.27c-.127-.72-.38-1.242-.796-1.584-.416-.342-.959-.504-1.664-.504-.58 0-1.013.126-1.303.36-.271.216-.452.54-.434.9 0 .27.145.522.362.684.235.216.796.414 1.682.594 2.19.469 3.745.937 4.704 1.423.958.486 1.646 1.08 2.062 1.783.434.72-.184 1.732-.202 2.578 0 1.008 0 1.5-.033 2.68a5.482 5.482 0 0 1-2.406 1.98c-1.031.45-2.334.684-3.89.684-2.75 0-4.649-.522-5.716-1.584-1.067-1.063-1.7-2.395-1.827-4.016ZM1.14 17.574V1.477h8.339c1.538 0 2.732.126 3.546.396a3.745 3.745 0 0 1 1.971 1.476c.525.774.778 1.675.76 2.611.054 1.585-.76 3.097-2.152 3.89a5.534 5.534 0 0 1-1.755.63c.452.126.904.342 1.302.594.308.252.561.54.796.846.272.306.507.648.706 1.008l2.424 4.664h-5.68L8.718 12.64c-.343-.63-.633-1.044-.904-1.242a2.154 2.154 0 0 0-1.23-.378H6.15v6.536l-5.011.018Zm5.01-9.58h2.117a8.078 8.078 0 0 0 1.32-.215c.326-.054.616-.234.815-.504a1.596 1.596 0 0 0-.181-2.125c-.326-.27-.96-.414-1.864-.414H6.151v3.259ZM0 31.368l4.758-.306c.108.774.307 1.35.633 1.764.506.649 1.248.99 2.207.99.705 0 1.266-.161 1.646-.503.362-.288.579-.703.579-1.153 0-.432-.2-.846-.543-1.116-.362-.324-1.212-.648-2.569-.936-2.189-.487-3.762-1.135-4.685-1.963a3.904 3.904 0 0 1-1.41-3.115c0-.828.252-1.657.723-2.341a4.753 4.753 0 0 1 2.17-1.729c.96-.414 2.298-.63 3.98-.63 2.062 0 3.636.378 4.722 1.152 1.085.775 1.718 1.981 1.917 3.656l-4.703.27c-.127-.72-.38-1.243-.796-1.585-.398-.342-.959-.504-1.664-.486-.58 0-1.013.126-1.303.378-.29.216-.452.54-.434.9 0 .27.145.523.362.685.235.216.796.414 1.682.594 2.189.468 3.745.936 4.703 1.422.96.487 1.647 1.08 2.063 1.783a4.61 4.61 0 0 1 .65 2.377 5.163 5.163 0 0 1-.867 2.845 5.483 5.483 0 0 1-2.406 1.98c-1.031.45-2.334.685-3.89.685-2.75 0-4.649-.522-5.716-1.585C.742 34.32.145 32.987 0 31.367Z"/>
    <path d="m24.06 30.107 4.377 1.314a8.113 8.113 0 0 1-1.393 3.061 6.056 6.056 0 0 1-2.352 1.855c-.94.414-2.134.63-3.581.63-1.755 0-3.202-.252-4.306-.756-1.121-.505-2.08-1.405-2.894-2.683-.814-1.279-1.212-2.917-1.212-4.916 0-2.665.706-4.718 2.135-6.14 1.429-1.423 3.437-2.143 6.041-2.143 2.045 0 3.637.414 4.812 1.224 1.158.829 2.026 2.09 2.605 3.782l-4.414.972a3.888 3.888 0 0 0-.488-1.08 2.867 2.867 0 0 0-1.031-.883 2.937 2.937 0 0 0-1.357-.306c-1.14 0-2.008.45-2.605 1.369-.452.666-.687 1.729-.687 3.169 0 1.783.271 3.007.814 3.673.543.666 1.302.99 2.297.99.959 0 1.683-.27 2.171-.792.488-.558.85-1.332 1.067-2.34Zm10.22-9.508h4.993v5.636h5.463V20.6h5.029v16.098h-5.03v-6.519h-5.462v6.519H34.28V20.599Z"/>
    <path d="M49.077 28.648c0-2.629.742-4.682 2.207-6.14 1.466-1.459 3.528-2.197 6.15-2.197 2.696 0 4.758.72 6.224 2.16 1.465 1.441 2.189 3.458 2.189 6.05 0 1.892-.326 3.422-.96 4.629a6.761 6.761 0 0 1-2.749 2.809c-1.212.666-2.713 1.008-4.504 1.008-1.827 0-3.329-.288-4.523-.864a6.88 6.88 0 0 1-2.912-2.737c-.742-1.26-1.122-2.827-1.122-4.718Zm4.993.018c0 1.62.308 2.79.905 3.511.597.702 1.429 1.063 2.478 1.063 1.067 0 1.9-.343 2.496-1.045.597-.702.887-1.945.887-3.745 0-1.513-.308-2.63-.923-3.313-.615-.703-1.447-1.045-2.496-1.045a3.07 3.07 0 0 0-2.424 1.063c-.615.702-.923 1.872-.923 3.51Zm16.896-.018c0-2.629.742-4.682 2.207-6.14C75.5 22.5 77.177 22.189 80 20.5c2.695 0 4.1.531 5.546 1.972 1.447 1.44 2.19 3.457 2.19 6.05 0 1.89-.327 3.421-.96 4.628a6.761 6.761 0 0 1-2.75 2.809c-1.211.666-2.713 1.008-4.504 1.008-1.827 0-3.328-.288-4.522-.864a6.881 6.881 0 0 1-2.912-2.737c-.742-1.26-1.122-2.827-1.122-4.718Zm4.993.018c0 1.62.307 2.79.904 3.511.597.702 1.43 1.063 2.478 1.063 1.068 0 1.9-.343 2.497-1.045s.886-1.945.886-3.745c0-1.513-.307-2.63-.922-3.313-.615-.703-1.448-1.045-2.497-1.045a3.045 3.045 0 0 0-2.424 1.063c-.615.702-.922 1.872-.922 3.51Z"/>
    <path d="M87.21 20.6h4.993v12.135H100v3.962H87.192V20.599h.019ZM74.096 22.688c-.163 0-.326 0-.489-.018-2.894-.126-5.355-1.333-6.928-3.403-3.238-4.268-1.646-10.894 3.527-14.783 5.174-3.89 12.012-3.566 15.25.684 1.574 2.07 2.062 4.772 1.393 7.562-.67 2.773-2.424 5.33-4.92 7.221-2.37 1.783-5.12 2.737-7.834 2.737Zm3.961-20.203c-2.46 0-5.101.846-7.417 2.575-4.866 3.637-6.385 9.831-3.382 13.775 1.447 1.908 3.708 3.007 6.385 3.133 2.696.108 5.481-.793 7.851-2.575 2.37-1.765 4.016-4.196 4.65-6.807.632-2.592.18-5.06-1.267-6.968-1.574-2.089-4.088-3.133-6.82-3.133Z"/>
    <path d="m70.984 11.038 1.81-1.26 2.224 3.15c.38.505.67 1.045.886 1.64.127.45.091.936-.09 1.368-.235.54-.615.99-1.121 1.314-.597.414-1.104.648-1.538.72-.416.072-.85 0-1.248-.18a3.018 3.018 0 0 1-1.104-.918l1.556-1.44c.127.197.29.378.47.522.127.09.272.144.434.144a.573.573 0 0 0 .344-.126.596.596 0 0 0 .29-.54 1.806 1.806 0 0 0-.38-.847l-2.533-3.547Zm5.427 1.999 1.646-1.297c.181.216.416.378.67.468.361.108.741.036 1.049-.198.217-.144.398-.342.47-.594a.631.631 0 0 0-.398-.792c-.054-.018-.108-.036-.163-.036-.217-.018-.597.072-1.157.306-.923.378-1.647.522-2.19.468a1.748 1.748 0 0 1-1.302-.774 1.936 1.936 0 0 1-.344-1.027c0-.414.11-.828.344-1.17.344-.486.76-.9 1.266-1.224.76-.523 1.43-.775 2.008-.775.58 0 1.122.27 1.629.829L78.31 8.499c-.326-.414-.941-.504-1.357-.18l-.054.054a.885.885 0 0 0-.38.468.467.467 0 0 0 .072.432c.072.09.18.162.308.162.144.018.397-.054.76-.216.904-.378 1.591-.594 2.062-.666a2.091 2.091 0 0 1 1.193.126c.344.144.633.396.832.702.254.36.398.793.417 1.243a2.26 2.26 0 0 1-.362 1.314c-.326.486-.742.9-1.23 1.225-.995.684-1.81.972-2.46.864a2.658 2.658 0 0 1-1.701-.99Z"/>
  </g>
  <defs>
    <clipPath id="a">
      <path fill="#fff" d="M0 0h100v36.967H0z"/>
    </clipPath>
  </defs>
</svg>
