<svg version="1.2" baseProfile="tiny-ps" xmlns="http://www.w3.org/2000/svg" viewBox="0 0 500 500" width="500" height="500">
	<title>Team</title>
	<style>
		tspan { white-space:pre }
		.shp0 { opacity: 0.702;fill: #ffffff }
		.shp1 { fill: #8076fe }
		.shp2 { fill: none;stroke: #263238;stroke-linecap:round;stroke-linejoin:round }
		.shp3 { fill: #263238 }
		.shp4 { fill: #999999;stroke: #263238;stroke-linecap:round;stroke-linejoin:round }
		.shp5 { fill: #8076fe;stroke: #263238;stroke-linecap:round;stroke-linejoin:round }
		.shp6 { fill: #ffffff }
		.shp7 { opacity: 0.4;fill: #8076fe }
		.shp8 { opacity: 0.212;fill: #000000 }
		.shp9 { opacity: 0.212;fill: #ffffff }
		.shp10 { fill: none;stroke: #263238;stroke-linecap:round;stroke-linejoin:round;stroke-width: 1.004 }
		.shp11 { fill: #999999 }
		.shp12 { opacity: 0.2;fill: #000000 }
		.shp13 { fill: #ffffff;stroke: #263238;stroke-linecap:round;stroke-linejoin:round }
		.shp14 { fill: none;stroke: #ffffff;stroke-linecap:round;stroke-linejoin:round }
		.shp15 { fill: #bfbfbf }
		.shp16 { fill: #757575;stroke: #263238;stroke-linecap:round;stroke-linejoin:round }
	</style>
	<g id="freepik--background-simple--inject-276">
		<path id="Layer" class="shp0" d="M46.82 156.17C46.82 156.17 15.46 237.15 59.53 318.69C103.59 400.23 194.36 443.31 267.01 480.15C339.65 516.98 415.09 499.04 450.93 438.71C486.78 378.38 437.62 335.31 437.55 249.28C437.48 163.25 450.43 140.48 403.81 67.8C357.19 -4.89 242.9 -20.98 156.48 32.93C70.05 86.84 46.82 156.17 46.82 156.17Z" />
		<path id="Layer" class="shp1" d="M94.13 94.73C109.27 76.65 129.73 62.71 154.12 62.95C195.73 63.47 218.23 100.3 242.09 128.71C254.46 143.44 268.51 157.66 286.89 164.59C314.46 174.97 345.16 168.91 372.02 159.27C384.06 154.95 398.31 148.88 411.86 151.98C453.06 161.41 448.77 211.68 441.97 243.52C432.78 286.53 417.84 332.27 387.58 365.26C315.11 444.32 184.7 395.86 119.33 332.77C114.52 328.13 109.92 323.29 105.59 318.15C102.79 314.88 100.08 311.51 97.49 308.06C94.9 304.62 92.41 301.09 90.05 297.48C87.68 293.87 85.43 290.19 83.29 286.44C81.16 282.69 79.15 278.87 77.26 274.99C56.21 231.19 53.31 177.94 71.64 132.67C73.01 129.24 74.52 125.87 76.15 122.56C77.78 119.25 79.54 116.01 81.42 112.83C83.31 109.66 85.31 106.56 87.43 103.54C89.55 100.52 91.79 97.58 94.13 94.73L94.13 94.73Z" />
		<path id="Layer" class="shp0" d="M94.13 94.73C109.27 76.65 129.73 62.71 154.12 62.95C195.73 63.47 218.23 100.3 242.09 128.71C254.46 143.44 268.51 157.66 286.89 164.59C314.46 174.97 345.16 168.91 372.02 159.27C384.06 154.95 398.31 148.88 411.86 151.98C453.06 161.41 448.77 211.68 441.97 243.52C432.78 286.53 417.84 332.27 387.58 365.26C315.11 444.32 184.7 395.86 119.33 332.77C114.52 328.13 109.92 323.29 105.59 318.15C102.79 314.88 100.08 311.51 97.49 308.06C94.9 304.62 92.41 301.09 90.05 297.48C87.68 293.87 85.43 290.19 83.29 286.44C81.16 282.69 79.15 278.87 77.26 274.99C56.21 231.19 53.31 177.94 71.64 132.67C73.01 129.24 74.52 125.87 76.15 122.56C77.78 119.25 79.54 116.01 81.42 112.83C83.31 109.66 85.31 106.56 87.43 103.54C89.55 100.52 91.79 97.58 94.13 94.73L94.13 94.73Z" />
	</g>
	<g id="freepik--Window--inject-276">
		<path id="Layer" class="shp2" d="M298.8 239.07L298.8 73.58L309.05 73.58" />
		<path id="Layer" class="shp2" d="M298.8 258.76L298.8 254.38" />
		<path id="Layer" class="shp2" d="M335.4 73.58L441.14 73.58L441.14 274.2L298.8 274.2" />
		<path id="Layer" class="shp2" d="M322.44 73.58L331.73 73.58" />
		<path id="Layer" class="shp2" d="M304.16 78.92L435.78 78.92L435.78 268.85L304.16 268.85L304.16 78.92Z" />
		<path id="Layer" class="shp2" d="M429.66 89.09L429.66 167.96L310.27 167.96L310.27 162.81" />
		<path id="Layer" class="shp2" d="M310.27 150.76L310.27 84.52L429.66 84.52" />
		<path id="Layer" class="shp2" d="M310.27 158.86L310.27 153.86" />
		<path id="Layer" class="shp2" d="M409.5 173.88L435.78 173.88" />
		<path id="Layer" class="shp2" d="M400.15 173.88L403.87 173.88" />
		<path id="Layer" class="shp2" d="M304.16 173.88L395.72 173.88" />
		<path id="Layer" class="shp2" d="M363.35 167.96L363.35 165.24L374.36 165.24L374.36 166.78L369.97 166.78L369.97 167.96" />
		<path id="Layer" class="shp2" d="M304.38 244.92C304.38 244.92 306.21 246.3 307.5 254.67C307.5 254.67 309.74 241.31 312.38 241.11C315.01 240.9 314.51 249.79 314.51 249.79C314.51 249.79 314.96 245.41 317.06 245.62C319.15 245.82 317.06 254.61 317.06 254.61C317.06 254.61 319.58 247.71 321.96 247.87C324.34 248.02 320.38 260.37 320.38 260.37C320.38 260.37 326.5 255.94 328.98 258.12C331.45 260.3 327.61 265.75 327.61 265.75C327.61 265.75 336.38 263.85 337.73 269" />
		<path id="Layer" class="shp2" d="M337.74 264.04C337.74 264.04 341.56 261.53 344.58 262.7C344.58 262.7 342.67 259.79 344.58 258.01C346.49 256.23 348.94 262.7 348.94 262.7C348.94 262.7 349.22 251.85 353.05 252.4C356.87 252.95 353.05 262.7 353.05 262.7C353.05 262.7 359.87 256.65 361.52 258.75C363.16 260.86 360.39 264.04 360.39 264.04C361.01 263.86 361.64 263.77 362.28 263.76C362.92 263.75 363.56 263.82 364.18 263.97C364.8 264.12 365.4 264.35 365.96 264.66C366.52 264.97 367.04 265.34 367.5 265.78C367.96 266.22 372.08 261.11 377.16 260.44C377.16 260.44 373.79 250.62 375.42 248.64C377.05 246.66 380.04 257.21 380.04 257.21C380.04 257.21 381.35 250.35 385.66 249.81C385.66 249.81 382.1 247.88 383.16 244.94C384.21 242.01 389.13 245.64 389.13 245.64C389.13 245.64 387.1 240.48 390.31 239.06C393.52 237.64 394.81 243.38 394.81 243.38C394.81 243.38 395.71 237.37 399.46 237.75C403.22 238.14 402.01 245 402.01 245C402.01 245 405.55 239.51 407.45 240.06C411.24 241.18 410.09 249.87 410.09 249.87C410.09 249.87 415.38 246.19 416.75 247.89C418.12 249.59 411.24 254.42 411.24 254.42C411.24 254.42 416.49 255 419.77 258.07" />
		<path id="Layer" class="shp2" d="M435.78 246.94C435.78 246.94 435.18 241.43 429.66 241.14C424.15 240.85 431.18 253.23 431.18 253.23C431.18 253.23 426.63 249.46 425 250.62C423.37 251.78 429.66 258.17 429.66 258.17C429.66 258.17 426.64 255.37 423.46 256.23C420.27 257.1 425.27 265.97 425.27 265.97C424.1 265.74 422.91 265.6 421.72 265.55C420.53 265.5 419.34 265.55 418.16 265.69C416.97 265.83 415.8 266.06 414.66 266.38C413.51 266.7 412.39 267.12 411.31 267.62" />
	</g>
	<g id="freepik--character-3--inject-276">
		<path id="Layer" class="shp3" d="M340.12 205.65L335.63 230.11L298.94 252.4L304.01 261.71C304.01 261.71 346.42 248.78 347.46 245.75C348.49 242.73 358.27 210.68 358.27 210.68L340.12 205.65Z" />
		<path id="Layer" class="shp4" d="M356.2 164.31L353.74 193.96L352.45 209.51C345.38 212.95 338.46 207.78 338.03 207.44L338.03 207.44C339.96 201.8 342.19 169.93 356.2 164.31Z" />
		<path id="Layer" class="shp3" d="M353.7 193.96L352.41 209.51C345.33 212.95 338.41 207.78 337.99 207.44C338.29 207.58 342.01 209.15 344.43 207.44C344.22 207.21 344.01 206.98 343.82 206.74C343.62 206.5 343.42 206.26 343.23 206.01C343.05 205.77 342.86 205.51 342.69 205.26C342.51 205 342.34 204.74 342.18 204.47C342.04 203.89 344.43 203.73 344.43 203.73C344.43 203.73 342.86 191.12 347.05 185.73C348.69 183.69 351.26 187.96 353.7 193.96Z" />
		<path id="Layer" class="shp5" d="M381.6 438.87L382.73 442.17C382.3 442.88 381.86 443.57 381.41 444.26C380.96 444.95 380.5 445.62 380.02 446.29C379.54 446.96 379.05 447.63 378.55 448.28C378.05 448.93 377.54 449.57 377.02 450.2C376.49 450.84 375.89 449.84 374.05 451.48C373.76 451.76 373.51 452.06 373.28 452.39C373.05 452.71 372.85 453.06 372.68 453.42C372.51 453.78 372.38 454.15 372.27 454.53C372.17 454.92 372.1 455.31 372.07 455.7C372.03 456.1 363.47 466.01 352.57 466.15C341.68 466.3 344.96 460.81 344.96 460.81L381.6 438.87Z" />
		<path id="Layer" class="shp6" d="M371.36 412.65C371.36 412.65 356.74 407.26 353.88 418.04C353.88 418.04 356.49 429.9 354.93 436.39C353.36 442.88 345.49 455.28 345.01 457.63C344.05 462.24 344.77 462.55 344.77 462.55C344.77 462.55 350.49 465.86 358.19 462.32C365.88 458.78 379.2 443.52 381.28 440.39C383.36 437.25 374.75 424.88 374.75 424.88L371.36 412.65Z" />
		<g id="Layer">
			<path id="Layer" class="shp7" d="M371.36 412.65C371.36 412.65 356.74 407.26 353.88 418.04C353.88 418.04 356.49 429.9 354.93 436.39C353.36 442.88 345.49 455.28 345.01 457.63C344.05 462.24 344.77 462.55 344.77 462.55C344.77 462.55 350.49 465.86 358.19 462.32C365.88 458.78 379.2 443.52 381.28 440.39C383.36 437.25 374.75 424.88 374.75 424.88L371.36 412.65Z" />
		</g>
		<path id="Layer" class="shp2" d="M371.36 412.65C371.36 412.65 356.74 407.26 353.88 418.04C353.88 418.04 356.49 429.9 354.93 436.39C353.36 442.88 345.49 455.28 345.01 457.63C344.05 462.24 344.77 462.55 344.77 462.55C344.77 462.55 350.49 465.86 358.19 462.32C365.88 458.78 379.2 443.52 381.28 440.39C383.36 437.25 374.75 424.88 374.75 424.88L371.36 412.65Z" />
		<path id="Layer" class="shp2" d="M363.88 427.89C364.19 429.69 364.35 431.51 364.36 433.33C364.36 435.16 364.2 436.98 363.89 438.78C363.58 440.58 363.11 442.35 362.5 444.07C361.89 445.78 361.12 447.45 360.22 449.03" />
		<path id="Layer" class="shp5" d="M360.22 451.87C359.95 452.55 359.61 453.2 359.19 453.81C358.77 454.41 358.29 454.97 357.75 455.47C357.21 455.97 356.62 456.4 355.98 456.77C355.35 457.14 354.67 457.43 353.97 457.65C353.24 457.85 352.49 457.99 351.74 458.09C350.99 458.19 350.23 458.24 349.47 458.24C348.71 458.24 347.95 458.19 347.2 458.09C346.45 457.99 345.7 457.85 344.97 457.65L348.48 450.54C349.41 450.91 350.36 451.22 351.32 451.46C352.29 451.7 353.27 451.88 354.26 451.99C355.25 452.1 356.25 452.15 357.25 452.13C358.24 452.11 359.24 452.02 360.22 451.87Z" />
		<path id="Layer" class="shp2" d="M362.29 447.56C362.29 447.56 354.64 448.02 350.65 446.44" />
		<path id="Layer" class="shp2" d="M363.71 443.34C363.71 443.34 356.56 444.47 352.56 442.22" />
		<path id="Layer" class="shp2" d="M364.92 438.65C364.92 438.65 358.66 439.56 354.57 437.63" />
		<path id="Layer" class="shp2" d="M365.62 433.34C365.62 433.34 358.65 435.53 355.35 433.34" />
		<path id="Layer" class="shp5" d="M366.67 420.23L367.88 427.89C367.88 427.89 358.66 433.96 352.56 426.37L352.56 418.37C352.56 418.37 354.86 423.75 366.67 420.23Z" />
		<path id="Layer" class="shp3" d="M358.66 248.29C349.31 277.91 320.31 325.4 323.24 337.56C324.85 344.2 334.42 381.8 341.91 398.3C344.76 404.61 350.91 408.83 350.91 408.83L355.35 418.35C366.18 423.06 370.06 413.48 370.06 413.48L367.88 402.68C373.69 392.13 371.26 392.13 363.71 337.45C362.82 331.01 377.77 311.09 377.77 311.09L385.44 361.2L386.69 402.26L390.67 414.94C390.67 414.94 391.66 426.86 391.57 427.58L409.37 427.58L411.31 414.48C411.31 414.48 419.58 406.69 419.58 397.69C419.58 388.69 417.8 342.86 419.58 329.51C421.35 316.16 415.41 253.92 415.41 253.92L358.66 248.29Z" />
		<path id="Layer" class="shp1" d="M237.62 221.91L262.37 224.13C262.64 224.16 262.91 224.24 263.16 224.37C263.41 224.5 263.63 224.67 263.81 224.89C263.98 225.1 264.12 225.35 264.2 225.61C264.29 225.88 264.32 226.16 264.29 226.44L262.7 244.1L233.73 241.49L235.32 223.83C235.34 223.55 235.42 223.28 235.55 223.03C235.68 222.79 235.86 222.57 236.07 222.39C236.29 222.21 236.53 222.08 236.8 221.99C237.06 221.91 237.34 221.88 237.62 221.91Z" />
		<g id="Layer">
			<path id="Layer" class="shp8" d="M237.62 221.91L262.37 224.13C262.64 224.16 262.91 224.24 263.16 224.37C263.41 224.5 263.63 224.67 263.81 224.89C263.98 225.1 264.12 225.35 264.2 225.61C264.29 225.88 264.32 226.16 264.29 226.44L262.7 244.1L233.73 241.49L235.32 223.83C235.34 223.55 235.42 223.28 235.55 223.03C235.68 222.79 235.86 222.57 236.07 222.39C236.29 222.21 236.53 222.08 236.8 221.99C237.06 221.91 237.34 221.88 237.62 221.91Z" />
			<path id="Layer" class="shp9" d="M255.66 223.22L262.76 223.83L261.54 238.01L254.44 237.4L255.66 223.22Z" />
		</g>
		<path id="Layer" class="shp10" d="M237.62 221.91L262.37 224.13C262.64 224.16 262.91 224.24 263.16 224.37C263.41 224.5 263.63 224.67 263.81 224.89C263.98 225.1 264.12 225.35 264.2 225.61C264.29 225.88 264.32 226.16 264.29 226.44L262.7 244.1L233.73 241.49L235.32 223.83C235.34 223.55 235.42 223.28 235.55 223.03C235.68 222.79 235.86 222.57 236.07 222.39C236.29 222.21 236.53 222.08 236.8 221.99C237.06 221.91 237.34 221.88 237.62 221.91Z" />
		<path id="Layer" class="shp1" d="M280.33 223.47L304.99 225.59C305.26 225.61 305.53 225.69 305.78 225.82C306.02 225.94 306.24 226.12 306.42 226.33C306.6 226.54 306.74 226.79 306.82 227.05C306.9 227.32 306.94 227.6 306.91 227.87L305.4 245.47L276.53 242.99L278.04 225.39C278.07 225.12 278.15 224.85 278.27 224.6C278.4 224.36 278.58 224.14 278.79 223.96C279 223.78 279.25 223.64 279.51 223.56C279.78 223.48 280.06 223.44 280.33 223.47Z" />
		<g id="Layer">
			<path id="Layer" class="shp8" d="M280.33 223.47L304.99 225.59C305.26 225.61 305.53 225.69 305.78 225.82C306.02 225.94 306.24 226.12 306.42 226.33C306.6 226.54 306.74 226.79 306.82 227.05C306.9 227.32 306.94 227.6 306.91 227.87L305.4 245.47L276.53 242.99L278.04 225.39C278.07 225.12 278.15 224.85 278.27 224.6C278.4 224.36 278.58 224.14 278.79 223.96C279 223.78 279.25 223.64 279.51 223.56C279.78 223.48 280.06 223.44 280.33 223.47Z" />
			<path id="Layer" class="shp9" d="M300.57 227.08L304.85 227.45L303.63 241.64L299.35 241.27L300.57 227.08Z" />
		</g>
		<path id="Layer" class="shp2" d="M280.33 223.47L304.99 225.59C305.26 225.61 305.53 225.69 305.78 225.82C306.02 225.94 306.24 226.12 306.42 226.33C306.6 226.54 306.74 226.79 306.82 227.05C306.9 227.32 306.94 227.6 306.91 227.87L305.4 245.47L276.53 242.99L278.04 225.39C278.07 225.12 278.15 224.85 278.27 224.6C278.4 224.36 278.58 224.14 278.79 223.96C279 223.78 279.25 223.64 279.51 223.56C279.78 223.48 280.06 223.44 280.33 223.47Z" />
		<path id="Layer" class="shp5" d="M271.38 222.69L296.03 224.81C296.31 224.83 296.58 224.91 296.82 225.04C297.07 225.17 297.29 225.34 297.47 225.56C297.65 225.77 297.78 226.01 297.87 226.28C297.95 226.54 297.98 226.82 297.96 227.1L296.45 244.69L267.58 242.21L269.09 224.62C269.11 224.34 269.19 224.07 269.32 223.83C269.45 223.58 269.62 223.36 269.83 223.18C270.05 223 270.29 222.87 270.56 222.78C270.82 222.7 271.1 222.67 271.38 222.69Z" />
		<path id="Layer" class="shp5" d="M313.95 226.36L338.6 228.48C338.88 228.5 339.15 228.58 339.4 228.71C339.64 228.83 339.86 229.01 340.04 229.22C340.22 229.43 340.35 229.68 340.44 229.94C340.52 230.21 340.55 230.49 340.53 230.76L339.02 248.35L310.15 245.87L311.66 228.27C311.69 228 311.77 227.73 311.9 227.48C312.02 227.24 312.2 227.02 312.41 226.84C312.62 226.67 312.87 226.53 313.13 226.45C313.4 226.36 313.68 226.33 313.95 226.36Z" />
		<path id="Layer" class="shp9" d="M289.28 226.11L296.37 226.72L295.16 240.9L288.06 240.29L289.28 226.11Z" />
		<path id="Layer" class="shp9" d="M331.39 229.72L338.48 230.33L337.26 244.52L330.17 243.91L331.39 229.72Z" />
		<path id="Layer" class="shp1" d="M351.91 245.36L344.95 326.26L214.6 315.01L221.57 234.12C221.62 233.45 221.81 232.8 222.12 232.2C222.43 231.61 222.85 231.08 223.37 230.64C223.88 230.21 224.47 229.88 225.12 229.68C225.76 229.48 226.43 229.41 227.1 229.46L347.24 239.79C347.92 239.84 348.57 240.03 349.17 240.34C349.77 240.65 350.31 241.08 350.74 241.6C351.17 242.12 351.5 242.71 351.7 243.36C351.9 244.01 351.97 244.68 351.91 245.36L351.91 245.36Z" />
		<g id="Layer">
			<path id="Layer" class="shp8" d="M351.91 245.36L344.95 326.26L214.6 315.01L221.57 234.12C221.62 233.45 221.81 232.8 222.12 232.2C222.43 231.61 222.85 231.08 223.37 230.64C223.88 230.21 224.47 229.88 225.12 229.68C225.76 229.48 226.43 229.41 227.1 229.46L347.24 239.79C347.92 239.84 348.57 240.03 349.17 240.34C349.77 240.65 350.31 241.08 350.74 241.6C351.17 242.12 351.5 242.71 351.7 243.36C351.9 244.01 351.97 244.68 351.91 245.36L351.91 245.36Z" />
		</g>
		<path id="Layer" class="shp2" d="M351.91 245.36L344.95 326.26L214.6 315.01L221.57 234.12C221.62 233.45 221.81 232.8 222.12 232.2C222.43 231.61 222.85 231.08 223.37 230.64C223.88 230.21 224.47 229.88 225.12 229.68C225.76 229.48 226.43 229.41 227.1 229.46L347.24 239.79C347.92 239.84 348.57 240.03 349.17 240.34C349.77 240.65 350.31 241.08 350.74 241.6C351.17 242.12 351.5 242.71 351.7 243.36C351.9 244.01 351.97 244.68 351.91 245.36L351.91 245.36Z" />
		<path id="Layer" class="shp5" d="M351.91 245.36L344.95 326.26L248.22 317.94L255.2 237.05C255.25 236.38 255.44 235.72 255.75 235.13C256.06 234.53 256.48 234 257 233.57C257.51 233.14 258.1 232.81 258.74 232.61C259.39 232.4 260.06 232.33 260.73 232.39L347.25 239.82C347.92 239.88 348.58 240.07 349.17 240.38C349.77 240.69 350.3 241.11 350.73 241.62C351.16 242.14 351.49 242.73 351.69 243.37C351.9 244.01 351.97 244.69 351.91 245.36Z" />
		<path id="Layer" class="shp9" d="M345.12 247.67L262.44 240.57C262.17 240.54 261.9 240.46 261.66 240.34C261.41 240.21 261.2 240.04 261.02 239.83C260.84 239.63 260.7 239.38 260.62 239.12C260.53 238.86 260.5 238.59 260.52 238.32L260.52 238.32C260.54 238.04 260.62 237.78 260.74 237.53C260.87 237.29 261.04 237.07 261.25 236.9C261.46 236.72 261.7 236.58 261.96 236.5C262.22 236.41 262.49 236.37 262.76 236.39L345.44 243.5C345.72 243.53 345.98 243.6 346.23 243.73C346.47 243.85 346.69 244.03 346.86 244.23C347.04 244.44 347.18 244.68 347.26 244.94C347.35 245.2 347.39 245.48 347.37 245.75L347.37 245.75C347.34 246.02 347.27 246.29 347.14 246.53C347.02 246.78 346.84 246.99 346.64 247.17C346.43 247.35 346.19 247.49 345.93 247.57C345.67 247.66 345.39 247.69 345.12 247.67Z" />
		<path id="Layer" class="shp6" d="M409.96 428.04C409.96 428.04 403.73 423.59 390.84 424.48C390.84 424.48 389.89 439.95 388.14 444.45C386.38 448.94 377.14 456.74 375.42 458.08C373.7 459.42 373.7 464.08 373.7 464.08L412.86 464.08C412.74 462.41 412.58 460.74 412.38 459.08C412.19 457.41 411.96 455.75 411.7 454.09C411.44 452.43 411.15 450.78 410.82 449.14C410.5 447.49 410.14 445.85 409.75 444.22L409.96 428.04Z" />
		<g id="Layer">
			<path id="Layer" class="shp7" d="M409.96 428.04C409.96 428.04 403.73 423.59 390.84 424.48C390.84 424.48 389.89 439.95 388.14 444.45C386.38 448.94 377.14 456.74 375.42 458.08C373.7 459.42 373.7 464.08 373.7 464.08L412.86 464.08C412.74 462.41 412.58 460.74 412.38 459.08C412.19 457.41 411.96 455.75 411.7 454.09C411.44 452.43 411.15 450.78 410.82 449.14C410.5 447.49 410.14 445.85 409.75 444.22L409.96 428.04Z" />
		</g>
		<path id="Layer" class="shp2" d="M409.96 428.04C409.96 428.04 403.73 423.59 390.84 424.48C390.84 424.48 389.89 439.95 388.14 444.45C386.38 448.94 377.14 456.74 375.42 458.08C373.7 459.42 373.7 464.08 373.7 464.08L412.86 464.08C412.74 462.41 412.58 460.74 412.38 459.08C412.19 457.41 411.96 455.75 411.7 454.09C411.44 452.43 411.15 450.78 410.82 449.14C410.5 447.49 410.14 445.85 409.75 444.22L409.96 428.04Z" />
		<path id="Layer" class="shp2" d="M401.87 430.04C401.87 430.04 400.95 444.28 398.73 448.03C398.44 448.55 398.13 449.05 397.8 449.55C397.47 450.04 397.12 450.52 396.76 450.99C396.39 451.46 396.01 451.92 395.62 452.37C395.23 452.81 394.82 453.24 394.39 453.66" />
		<path id="Layer" class="shp5" d="M393.31 455.63C393.31 455.63 391.34 458.08 389.16 458.4C386.98 458.73 375.45 458.08 375.45 458.08L380.15 454.01C380.15 454.01 389.71 452.4 393.31 455.63Z" />
		<path id="Layer" class="shp2" d="M397.38 452.29C397.38 452.29 389.04 447.49 383.09 451.16" />
		<path id="Layer" class="shp2" d="M399.4 449.03C399.4 449.03 393.57 444.48 386.7 446.98" />
		<path id="Layer" class="shp2" d="M401.87 444.07C401.87 444.07 395.6 439.19 388.98 442.3" />
		<path id="Layer" class="shp2" d="M402.73 437.88C402.73 437.88 395.11 433.78 389.58 436.89" />
		<path id="Layer" class="shp5" d="M412.85 464.08L412.85 466.97L408.35 466.97C408.35 466.97 404.49 464.72 400.83 466.97L379.7 466.97C379.15 466.97 378.59 466.94 378.04 466.88C377.49 466.82 376.94 466.72 376.4 466.6C375.85 466.48 375.32 466.33 374.79 466.15C374.27 465.97 373.75 465.76 373.25 465.52L373.69 464.08L412.85 464.08Z" />
		<path id="Layer" class="shp5" d="M407.24 427.13L406.24 433.43C406.24 433.43 394.48 429.62 387.99 432.1L387.99 424.34C387.99 424.34 400.06 420.11 407.24 427.13Z" />
		<path id="Layer" class="shp11" d="M419.95 269.92C419.95 269.92 394.97 274.81 370.46 266.87C369.06 266.43 367.69 265.94 366.32 265.41C364.96 264.88 363.61 264.31 362.28 263.7C360.96 263.09 359.65 262.43 358.36 261.74C357.07 261.05 355.81 260.31 354.57 259.54C353.32 258.77 354.63 257.97 354.68 255.39C354.88 245.33 354.82 220.04 349.53 213.77C346.15 209.83 343.51 185.42 350.02 173.08L369.94 157.07C397.52 162.45 403.35 169.75 407.9 185.5C408.74 188.38 409.53 191.54 410.41 195.03C411.36 198.83 412.26 203.47 413.12 208.52C417.26 233.67 419.95 269.92 419.95 269.92Z" />
		<g id="Layer">
			<path id="Layer" class="shp12" d="M413.12 208.52L401.87 258.76C401.87 258.76 385.62 263.26 370.47 266.87C369.07 266.43 367.69 265.94 366.33 265.41C364.97 264.88 363.62 264.31 362.29 263.7C360.96 263.09 359.65 262.43 358.36 261.74C357.08 261.05 355.81 260.31 354.57 259.54C353.32 258.77 354.63 257.97 354.68 255.39C368.29 248.43 388.15 238.19 387.99 237.71C387.73 236.96 387.99 210.72 387.99 210.72C387.99 210.72 405.99 206.54 407.9 185.46C408.74 188.34 409.53 191.5 410.41 194.99C411.36 198.8 412.26 203.42 413.12 208.52Z" />
		</g>
		<path id="Layer" class="shp2" d="M419.95 269.92C419.95 269.92 394.97 274.81 370.46 266.87C369.06 266.43 367.69 265.94 366.32 265.41C364.96 264.88 363.61 264.31 362.28 263.7C360.96 263.09 359.65 262.43 358.36 261.74C357.07 261.05 355.81 260.31 354.57 259.54C353.32 258.77 354.63 257.97 354.68 255.39C354.88 245.33 354.82 220.04 349.53 213.77C346.15 209.83 343.51 185.42 350.02 173.08L369.94 157.07C397.52 162.45 403.35 169.75 407.9 185.5C408.74 188.38 409.53 191.54 410.41 195.03C411.36 198.83 412.26 203.47 413.12 208.52C417.26 233.67 419.95 269.92 419.95 269.92Z" />
		<path id="Layer" class="shp13" d="M370.82 136.04C370.82 136.04 362.02 148.64 373.72 158.47C373.72 158.47 359.53 174.4 354.86 172.2C352.89 171.28 354.86 165.53 354.86 165.53L346.62 150.31L370.82 136.04Z" />
		<path id="Layer" class="shp13" d="M367.95 142.57C370.69 130.57 369.38 112.69 352.56 114.28C340.78 115.41 332.37 121.93 335.69 137.74C337.08 144.41 338.21 153.86 344.33 162.39C346.03 164.75 363.8 156.39 362.72 149.63" />
		<path id="Layer" class="shp2" d="M343.89 135.07C344.48 134.84 345.1 134.68 345.73 134.59C346.35 134.51 346.99 134.49 347.62 134.55C348.25 134.62 348.87 134.75 349.47 134.96C350.07 135.16 350.64 135.44 351.18 135.77" />
		<path id="Layer" class="shp2" d="M335.43 136.54C335.54 136.31 335.69 136.1 335.87 135.93C336.05 135.75 336.26 135.61 336.49 135.5C336.72 135.4 336.97 135.34 337.22 135.33C337.47 135.31 337.72 135.34 337.96 135.41" />
		<path id="Layer" class="shp13" d="M339.64 139.04C339.64 139.04 336.18 145.35 336.16 146.25C336.15 147.15 340.43 147.45 340.43 147.45" />
		<path id="Layer" class="shp3" d="M347.09 140.32C347.09 141 346.78 141.57 346.36 141.59C345.93 141.61 345.57 141.05 345.55 140.36C345.52 139.68 345.85 139.11 346.28 139.1C346.7 139.09 347.06 139.65 347.09 140.32Z" />
		<path id="Layer" class="shp2" d="M342.19 152.04C342.19 152.04 348.84 150.79 350.07 148.45" />
		<path id="Layer" class="shp3" d="M335.39 126.82L340.56 125.31C340.56 125.31 347.82 121.94 349.36 122.41C350.9 122.88 354.03 127.69 353.92 130.43C353.92 130.43 358.81 134.73 359.42 140.96L360.91 140.28C360.91 140.28 360.83 134.66 364.02 134.81C367.22 134.95 368.66 138.78 368.44 139.98C368.23 141.18 364.73 146.18 364.73 146.18C364.73 146.18 372.74 144.99 373 129.31C373.26 113.63 356.07 111.08 347.72 111.72C346.66 111.82 345.6 111.9 344.54 111.97C343.48 112.04 342.42 112.1 341.36 112.14C340.3 112.18 339.23 112.2 338.17 112.21C337.11 112.22 336.05 112.21 334.98 112.19L335.46 116.69L332.08 117.58L334.62 120.69L331.83 121.96L335.39 126.82Z" />
		<path id="Layer" class="shp14" d="M364.36 297.78C364.36 297.78 384.72 303.17 390.23 318.33" />
		<path id="Layer" class="shp14" d="M373.69 305.94C373.69 305.94 362.69 324.26 345.85 333.77" />
		<path id="Layer" class="shp14" d="M358.22 408.97C358.22 408.97 364.47 407.57 366.18 405.14" />
		<path id="Layer" class="shp14" d="M393.04 411.3C393.04 411.3 399.16 408.13 405.26 411.3" />
		<path id="Layer" class="shp14" d="M412.85 326C412.85 326 402.58 352.6 397.38 355.06" />
		<path id="Layer" class="shp14" d="M367.88 284.34C368.16 287.23 380.25 300.63 390.23 305.94" />
		<path id="Layer" class="shp14" d="M378.2 273.04C378.56 273.93 378.85 274.84 379.07 275.78C379.29 276.71 379.44 277.66 379.51 278.62C379.58 279.58 379.58 280.54 379.51 281.5C379.43 282.46 379.28 283.41 379.06 284.34C378.82 285.15 378.64 285.97 378.52 286.81C378.4 287.64 378.33 288.48 378.33 289.32C378.33 290.17 378.4 291.01 378.52 291.84C378.64 292.67 378.82 293.5 379.06 294.31" />
		<path id="Layer" class="shp2" d="M356.2 217.72C356.2 217.72 375.13 242.22 395.47 250.26" />
		<path id="Layer" class="shp2" d="M375.79 178.12C375.79 178.12 375.72 194.78 387.73 202.29" />
		<path id="Layer" class="shp13" d="M382.55 202.43C380.01 204.92 382.77 236.26 382.77 236.26C382.77 236.26 368.01 242.04 363.38 245.76C358.76 249.48 336.86 258.03 336.86 258.03C336.86 258.03 333.49 269.53 337.69 269.92C341.9 270.31 385.46 255.47 395.43 250.26C395.43 250.26 401.92 212.02 401.87 202.29" />
		<path id="Layer" class="shp13" d="M338.59 257.35C336.57 256.96 332.97 255.64 331.08 256.08C329.19 256.51 325.74 258.6 322.18 259.45C318.63 260.3 320.1 261.7 322.18 262.12C322.56 262.18 322.95 262.23 323.33 262.26C323.71 262.29 324.1 262.31 324.48 262.31C324.87 262.31 325.25 262.29 325.64 262.26C326.02 262.23 326.4 262.18 326.78 262.12L323.89 264.94C323.48 265.16 323.06 265.38 322.64 265.59C322.22 265.8 321.8 266.01 321.37 266.2C320.95 266.4 320.52 266.59 320.08 266.78C319.65 266.96 319.21 267.14 318.78 267.31C317.73 267.31 314.03 268.31 314.28 269.89C314.53 271.46 316.65 271.28 319.02 271.37C319.02 271.37 315.24 272.13 315.65 274.27C315.9 275.75 320.15 274.42 322.32 274.42C322.32 274.42 320.54 276.35 321.87 276.95C323.2 277.55 326.14 276.06 326.14 276.06C326.14 276.06 326.03 277.66 327.36 277.82C328.69 277.97 332.03 276.69 334.3 275.32C334.86 274.96 335.41 274.59 335.96 274.21C336.5 273.83 337.05 273.45 337.58 273.05C338.11 272.65 338.64 272.25 339.16 271.84C339.69 271.42 340.2 271 340.71 270.57C340.92 270.38 341.15 270.19 341.38 270.01C341.61 269.83 341.84 269.67 342.09 269.51C342.33 269.35 342.58 269.2 342.84 269.06C343.09 268.93 343.36 268.8 343.62 268.68" />
		<path id="Layer" class="shp2" d="M319.08 271.42C319.34 271.4 319.6 271.38 319.86 271.36C320.12 271.34 320.38 271.31 320.64 271.28C320.9 271.25 321.16 271.22 321.42 271.18C321.68 271.14 321.94 271.1 322.2 271.06C323.08 270.83 323.97 270.54 323.97 270.54" />
		<path id="Layer" class="shp2" d="M322.33 274.47C322.67 274.42 323.01 274.35 323.34 274.27C323.67 274.19 324 274.1 324.32 273.99C324.65 273.88 324.96 273.75 325.28 273.61C325.59 273.47 325.89 273.31 326.19 273.14" />
		<path id="Layer" class="shp2" d="M326.15 276.11C326.41 276.08 326.65 276.03 326.9 275.97C327.14 275.91 327.38 275.84 327.62 275.75C327.86 275.66 328.09 275.56 328.31 275.44C328.54 275.33 328.76 275.2 328.97 275.06" />
		<path id="Layer" class="shp2" d="M324.25 265.79C324.25 265.79 323.44 267.65 324.25 268.68C325.06 269.72 326.04 269.81 326.19 270.93C326.33 272.06 328.27 272.06 328.97 272.79C329.66 273.52 330.19 274.93 332.42 275.04" />
		<path id="Layer" class="shp4" d="M381.6 169.93C373.94 187.26 381.6 211.31 381.6 211.31C381.6 211.31 400.14 217.61 401.85 214.9C403.56 212.19 406.69 198.89 407.21 192.75" />
		<path id="Layer" class="shp2" d="M401.87 194.68C401.87 194.68 394 205.51 387.73 205.65" />
	</g>
	<g id="freepik--character-2--inject-276">
		<path id="Layer" class="shp3" d="M120.46 466.97C120.46 466.97 118.54 459.63 120.79 456.91C124.82 452.03 120.29 447.91 124.34 446.23L126.04 448.2C126.37 446.21 125.42 440.13 132.94 439.34C142.02 438.38 142.19 444.96 142.69 447.21L142.53 444.16C146.41 444.16 144.4 448.03 150.27 454.35C151.04 455.21 151.71 456.13 152.29 457.12C152.87 458.11 153.35 459.16 153.71 460.25C154.08 461.33 154.33 462.45 154.46 463.59C154.6 464.73 154.62 465.88 154.52 467.02L120.46 466.97Z" />
		<path id="Layer" class="shp3" d="M189.74 466.97C186.08 465.34 189.43 451.55 189.43 451.55C189.43 451.55 184.52 448.26 189.43 444.81C190.38 445.61 191.43 446.28 192.56 446.8C193.68 447.31 194.87 447.68 196.1 447.87C197.32 448.07 198.57 448.1 199.8 447.96C201.03 447.82 202.24 447.52 203.39 447.06C204.54 446.59 204.35 437.83 210.14 439.01C210.14 439.01 211.62 444.86 215.01 448.2C224.18 457.2 236.02 458.33 238 462.64C238.59 463.95 237.87 466.93 237.87 466.93L189.74 466.97Z" />
		<path id="Layer" class="shp15" d="M174.11 247.07L178.61 256.6C178.61 256.6 197.22 295.05 208.61 339.07C208.88 340.12 214.77 360.97 210.05 412.9L212.75 422.01L209.8 437.06C209.8 437.06 214.23 443.46 214.08 445.55C214.08 445.55 203.14 447.58 199.45 449.54C196.62 451.07 188.11 459.47 188.11 459.47C185.69 458.98 185.47 449.21 185.47 449.21C185.47 449.21 180.42 362.53 178.97 358.8C177.52 355.06 168.66 338.96 154.82 302.1C154.82 302.1 154.51 353.58 150.82 366.6C147.52 378.19 151.43 410.61 151.43 410.61L149.18 446.71C149.18 446.71 156.96 454.79 150.65 456.96C150.65 456.96 146.43 448.85 134.42 447.01C128.31 446.07 120.71 456.91 120.71 456.91C118.03 456.05 121.84 442.43 121.84 442.43C113.32 378.19 119.59 389.82 117.9 358.42C116.77 338.26 111.09 252.04 117.8 245.03L174.11 247.07Z" />
		<g id="Layer">
			<path id="Layer" class="shp12" d="M114.67 276.76C144.75 279.12 170.78 269.28 182.09 264.14C179.94 259.33 178.62 256.6 178.62 256.6L174.12 247.08L117.89 245.03C115.5 247.56 114.66 260.42 114.67 276.76Z" />
			<path id="Layer" class="shp12" d="M155.13 302.76C168.82 339.15 177.62 355.07 179.04 358.79C179.86 360.95 181.87 390.38 183.45 415.08C185.25 392.58 187.1 368.89 187.26 364.24C187.6 354.97 180.91 342.28 179.91 338.99C178.9 335.71 181.17 332.15 181.17 332.15L169.13 316.97C169.54 311.82 163.16 289.33 163.16 289.33C159.37 292.92 155.99 300.56 155.13 302.76Z" />
		</g>
		<path id="Layer" class="shp2" d="M174.11 247.07L178.61 256.6C178.61 256.6 197.22 295.05 208.61 339.07C208.88 340.12 214.77 360.97 210.05 412.9L212.75 422.01L209.8 437.06C209.8 437.06 214.23 443.46 214.08 445.55C214.08 445.55 203.14 447.58 199.45 449.54C196.62 451.07 188.11 459.47 188.11 459.47C185.69 458.98 185.47 449.21 185.47 449.21C185.47 449.21 180.42 362.53 178.97 358.8C177.52 355.06 168.66 338.96 154.82 302.1C154.82 302.1 154.51 353.58 150.82 366.6C147.52 378.19 151.43 410.61 151.43 410.61L149.18 446.71C149.18 446.71 156.96 454.79 150.65 456.96C150.65 456.96 146.43 448.85 134.42 447.01C128.31 446.07 120.71 456.91 120.71 456.91C118.03 456.05 121.84 442.43 121.84 442.43C113.32 378.19 119.59 389.82 117.9 358.42C116.77 338.26 111.09 252.04 117.8 245.03L174.11 247.07Z" />
		<path id="Layer" class="shp2" d="M154.87 302.1C154.87 302.1 161.74 288.84 167.6 285.14" />
		<path id="Layer" class="shp2" d="M170.19 280.84C170.19 280.84 149.31 287.2 142.07 288.42" />
		<path id="Layer" class="shp2" d="M159.5 259.54C160.4 276.92 166.53 279.88 160.63 283.67C160.63 283.67 160.8 291.8 157.85 296.95" />
		<path id="Layer" class="shp2" d="M122.93 252.89C122.93 252.89 125.39 279.61 117.17 284.63" />
		<path id="Layer" class="shp2" d="M117.17 261.51C117.17 261.51 116.55 279.29 117.17 293.62C117.17 293.62 119.23 354.19 121.28 361.79C123.34 369.39 118.11 380.91 118.56 413.77" />
		<path id="Layer" class="shp2" d="M136.87 439.5C136.39 439.39 135.9 439.33 135.41 439.31C134.92 439.29 134.42 439.31 133.93 439.38C133.44 439.44 132.96 439.55 132.49 439.7C132.02 439.85 131.56 440.03 131.13 440.26" />
		<path id="Layer" class="shp2" d="M149.25 446.71C148.6 446.08 147.93 445.48 147.24 444.91C146.54 444.34 145.83 443.81 145.08 443.3C144.34 442.79 143.58 442.31 142.8 441.87C142.02 441.43 141.22 441.02 140.41 440.64" />
		<path id="Layer" class="shp2" d="M145.87 306.3C141.26 311.47 133.95 321.22 126.46 322.04" />
		<path id="Layer" class="shp2" d="M152.92 297.88C151.51 299.67 150.04 301.42 148.56 303.17" />
		<path id="Layer" class="shp2" d="M146.35 358.42C146.35 358.42 135.87 372.69 130.13 373.51" />
		<path id="Layer" class="shp2" d="M158.68 299.52C158.68 299.52 177.35 351.52 183.84 356.65C183.84 356.65 184.57 394.89 184.79 408.24C185 421.59 188.07 439.34 188.07 439.34" />
		<path id="Layer" class="shp2" d="M208 438.96C208 438.96 200.81 441.44 197.32 443.03C196.79 443.29 196.28 443.6 195.8 443.95C195.33 444.3 194.89 444.69 194.48 445.13C194.08 445.56 193.72 446.03 193.4 446.53C193.08 447.03 192.81 447.55 192.59 448.1" />
		<path id="Layer" class="shp2" d="M189.81 337.9C179.79 331.61 166.58 323.75 161.25 312.67" />
		<path id="Layer" class="shp2" d="M198.55 343.09C196.65 342.04 194.79 340.95 192.93 339.82" />
		<path id="Layer" class="shp2" d="M166.97 266.57C161.58 266.49 155.72 265.78 151.08 262.73" />
		<path id="Layer" class="shp2" d="M175.53 266.06C173.99 266.28 172.44 266.41 170.89 266.49" />
		<path id="Layer" class="shp3" d="M185.53 146.66C181.41 140.43 160.44 138.84 146.97 138.84C133.51 138.84 117.17 136.6 109.79 151.78C104.17 163.38 117.12 224.7 117.12 224.7L113.95 251.17C138.34 258.82 180.11 257.13 180.11 257.13L174.48 233.2C174.48 233.2 189.65 152.88 185.53 146.66Z" />
		<path id="Layer" class="shp13" d="M138.98 123.45C138.98 123.45 140.79 137.88 135.3 140.99C135.3 140.99 138.04 151.58 147.67 152.24C157.3 152.9 161.55 142.57 161.55 142.57L138.98 123.45Z" />
		<path id="Layer" class="shp1" d="M190 86.4L214.64 84.12C214.91 84.1 215.19 84.13 215.46 84.21C215.72 84.29 215.97 84.43 216.18 84.6C216.4 84.78 216.57 85 216.7 85.24C216.83 85.49 216.91 85.76 216.94 86.03L218.56 103.62L189.75 106.28L188.13 88.69C188.11 88.42 188.14 88.14 188.21 87.88C188.29 87.62 188.42 87.38 188.6 87.16C188.77 86.95 188.98 86.77 189.22 86.64C189.46 86.51 189.73 86.43 190 86.4L190 86.4Z" />
		<g id="Layer">
			<path id="Layer" class="shp8" d="M190 86.4L214.64 84.12C214.91 84.1 215.19 84.13 215.46 84.21C215.72 84.29 215.97 84.43 216.18 84.6C216.4 84.78 216.57 85 216.7 85.24C216.83 85.49 216.91 85.76 216.94 86.03L218.56 103.62L189.75 106.28L188.13 88.69C188.11 88.42 188.14 88.14 188.21 87.88C188.29 87.62 188.42 87.38 188.6 87.16C188.77 86.95 188.98 86.77 189.22 86.64C189.46 86.51 189.73 86.43 190 86.4L190 86.4Z" />
			<path id="Layer" class="shp9" d="M208.27 86.56L215.36 85.9L216.66 100.08L209.57 100.73L208.27 86.56Z" />
		</g>
		<path id="Layer" class="shp2" d="M190 86.4L214.64 84.12C214.91 84.1 215.19 84.13 215.46 84.21C215.72 84.29 215.97 84.43 216.18 84.6C216.4 84.78 216.57 85 216.7 85.24C216.83 85.49 216.91 85.76 216.94 86.03L218.56 103.62L189.75 106.28L188.13 88.69C188.11 88.42 188.14 88.14 188.21 87.88C188.29 87.62 188.42 87.38 188.6 87.16C188.77 86.95 188.98 86.77 189.22 86.64C189.46 86.51 189.73 86.43 190 86.4L190 86.4Z" />
		<path id="Layer" class="shp1" d="M232.6 82.44L257.24 80.17C257.52 80.15 257.8 80.17 258.06 80.26C258.33 80.34 258.57 80.47 258.79 80.65C259 80.83 259.18 81.05 259.31 81.29C259.44 81.54 259.51 81.81 259.54 82.08L261.16 99.67L232.31 102.33L230.69 84.74C230.66 84.47 230.69 84.19 230.78 83.92C230.86 83.66 230.99 83.41 231.17 83.2C231.35 82.98 231.56 82.81 231.81 82.68C232.06 82.55 232.32 82.47 232.6 82.44Z" />
		<g id="Layer">
			<path id="Layer" class="shp8" d="M232.6 82.44L257.24 80.17C257.52 80.15 257.8 80.17 258.06 80.26C258.33 80.34 258.57 80.47 258.79 80.65C259 80.83 259.18 81.05 259.31 81.29C259.44 81.54 259.51 81.81 259.54 82.08L261.16 99.67L232.31 102.33L230.69 84.74C230.66 84.47 230.69 84.19 230.78 83.92C230.86 83.66 230.99 83.41 231.17 83.2C231.35 82.98 231.56 82.81 231.81 82.68C232.06 82.55 232.32 82.47 232.6 82.44Z" />
			<path id="Layer" class="shp9" d="M253.17 82.43L257.45 82.03L258.76 96.21L254.48 96.6L253.17 82.43Z" />
		</g>
		<path id="Layer" class="shp2" d="M232.6 82.44L257.24 80.17C257.52 80.15 257.8 80.17 258.06 80.26C258.33 80.34 258.57 80.47 258.79 80.65C259 80.83 259.18 81.05 259.31 81.29C259.44 81.54 259.51 81.81 259.54 82.08L261.16 99.67L232.31 102.33L230.69 84.74C230.66 84.47 230.69 84.19 230.78 83.92C230.86 83.66 230.99 83.41 231.17 83.2C231.35 82.98 231.56 82.81 231.81 82.68C232.06 82.55 232.32 82.47 232.6 82.44Z" />
		<path id="Layer" class="shp5" d="M223.65 83.26L248.29 80.99C248.56 80.96 248.84 80.99 249.11 81.08C249.37 81.16 249.62 81.29 249.83 81.47C250.05 81.65 250.22 81.86 250.35 82.11C250.48 82.36 250.56 82.62 250.59 82.9L252.21 100.48L223.31 103.15L221.69 85.57C221.67 85.29 221.7 85 221.78 84.73C221.87 84.47 222 84.22 222.19 84C222.37 83.79 222.59 83.61 222.84 83.48C223.09 83.36 223.37 83.28 223.65 83.26L223.65 83.26Z" />
		<path id="Layer" class="shp5" d="M266.21 79.34L290.85 77.06C291.12 77.04 291.4 77.07 291.67 77.15C291.93 77.23 292.18 77.37 292.39 77.54C292.61 77.72 292.78 77.94 292.91 78.18C293.04 78.43 293.12 78.7 293.15 78.97L294.77 96.56L265.92 99.22L264.3 81.64C264.27 81.36 264.3 81.08 264.38 80.82C264.47 80.55 264.6 80.3 264.78 80.09C264.95 79.88 265.17 79.7 265.42 79.57C265.66 79.44 265.93 79.36 266.21 79.34Z" />
		<path id="Layer" class="shp9" d="M241.88 83.46L248.96 82.81L250.27 96.98L243.18 97.64L241.88 83.46Z" />
		<path id="Layer" class="shp9" d="M283.97 79.57L291.06 78.91L292.36 93.09L285.28 93.74L283.97 79.57Z" />
		<path id="Layer" class="shp1" d="M306.94 91.3L314.41 172.15L184.11 184.18L176.69 103.31C176.63 102.65 176.7 101.97 176.9 101.33C177.1 100.69 177.42 100.09 177.85 99.57C178.28 99.06 178.8 98.63 179.4 98.32C179.99 98 180.64 97.81 181.31 97.75L301.39 86.67C302.06 86.61 302.73 86.68 303.37 86.88C304.02 87.08 304.61 87.4 305.13 87.83C305.64 88.26 306.07 88.79 306.38 89.39C306.69 89.98 306.89 90.63 306.94 91.3Z" />
		<g id="Layer">
			<path id="Layer" class="shp8" d="M306.94 91.3L314.41 172.15L184.11 184.18L176.69 103.31C176.63 102.65 176.7 101.97 176.9 101.33C177.1 100.69 177.42 100.09 177.85 99.57C178.28 99.06 178.8 98.63 179.4 98.32C179.99 98 180.64 97.81 181.31 97.75L301.39 86.67C302.06 86.61 302.73 86.68 303.37 86.88C304.02 87.08 304.61 87.4 305.13 87.83C305.64 88.26 306.07 88.79 306.38 89.39C306.69 89.98 306.89 90.63 306.94 91.3Z" />
		</g>
		<path id="Layer" class="shp2" d="M306.94 91.3L314.41 172.15L184.11 184.18L176.69 103.31C176.63 102.65 176.7 101.97 176.9 101.33C177.1 100.69 177.42 100.09 177.85 99.57C178.28 99.06 178.8 98.63 179.4 98.32C179.99 98 180.64 97.81 181.31 97.75L301.39 86.67C302.06 86.61 302.73 86.68 303.37 86.88C304.02 87.08 304.61 87.4 305.13 87.83C305.64 88.26 306.07 88.79 306.38 89.39C306.69 89.98 306.89 90.63 306.94 91.3Z" />
		<path id="Layer" class="shp5" d="M306.94 91.3L314.41 172.15L217.69 181.07L210.23 100.22C210.17 99.55 210.24 98.88 210.44 98.24C210.63 97.59 210.96 97 211.39 96.48C211.82 95.96 212.34 95.54 212.94 95.22C213.53 94.91 214.18 94.72 214.85 94.65L301.33 86.67C302.01 86.6 302.69 86.66 303.34 86.86C303.98 87.06 304.59 87.38 305.11 87.81C305.63 88.24 306.06 88.77 306.38 89.37C306.69 89.97 306.89 90.63 306.94 91.3Z" />
		<path id="Layer" class="shp9" d="M300.68 94.78L218.05 102.4C217.77 102.42 217.5 102.39 217.24 102.3C216.98 102.22 216.74 102.08 216.53 101.9C216.32 101.73 216.15 101.51 216.03 101.27C215.9 101.03 215.82 100.76 215.8 100.49L215.8 100.49C215.78 100.22 215.81 99.95 215.89 99.69C215.98 99.43 216.11 99.19 216.29 98.98C216.46 98.77 216.68 98.6 216.92 98.47C217.16 98.35 217.43 98.27 217.7 98.24L300.33 90.62C300.6 90.6 300.88 90.63 301.14 90.72C301.4 90.8 301.64 90.94 301.84 91.11C302.05 91.29 302.22 91.51 302.35 91.75C302.48 91.99 302.55 92.26 302.58 92.53L302.58 92.53C302.6 92.8 302.56 93.07 302.48 93.33C302.39 93.59 302.26 93.83 302.08 94.04C301.91 94.24 301.69 94.42 301.45 94.54C301.21 94.67 300.95 94.75 300.68 94.78Z" />
		<path id="Layer" class="shp3" d="M155.48 94.83C155.48 94.83 136.41 91.01 134.28 103.28C132.14 115.55 139.12 120.77 139.12 120.77L155.48 94.83Z" />
		<path id="Layer" class="shp13" d="M139.12 127.51C138.58 125.99 138.15 124.44 137.84 122.86C137.52 121.29 137.32 119.69 137.24 118.08C137.16 116.47 137.19 114.86 137.34 113.26C137.49 111.66 137.76 110.07 138.14 108.51C140.01 100.64 149.39 89.81 163.62 99.65C170.94 104.72 171.39 115.73 169.11 125.81C168.57 128.22 168.97 130.57 168.17 132.78C165.36 140.54 160.22 146.52 157.41 146.65C152.72 146.89 143.34 141.21 143.72 136.26" />
		<path id="Layer" class="shp2" d="M158.12 123.94C158.12 123.94 154.33 121.2 150.69 123.45" />
		<path id="Layer" class="shp2" d="M165.27 123.45C165.27 123.45 168.14 120.82 170.01 121.2" />
		<path id="Layer" class="shp3" d="M152.77 128.15C152.77 128.85 153.11 129.42 153.55 129.42C153.99 129.42 154.35 128.85 154.35 128.15C154.35 127.45 153.99 126.89 153.55 126.89C153.11 126.89 152.77 127.45 152.77 128.15Z" />
		<path id="Layer" class="shp3" d="M165.27 128.71C164.83 128.71 164.47 128.15 164.47 127.45C164.47 126.75 164.83 126.19 165.27 126.19C165.71 126.19 166.07 126.75 166.07 127.45C166.07 128.15 165.71 128.71 165.27 128.71Z" />
		<path id="Layer" class="shp2" d="M163.66 126.1C162.27 127.92 164.23 134.86 163.66 135.36C163.1 135.85 159.53 134.45 159.53 134.45C159.53 134.45 158.69 133.39 160.44 132.83" />
		<path id="Layer" class="shp2" d="M160.49 138.84C160.49 138.84 155.69 138.84 154.41 137.09" />
		<path id="Layer" class="shp16" d="M149 112.85L148.63 118.66C148.63 118.66 144.51 120.78 143.48 122.94C143.32 123.29 143.19 123.65 143.09 124.02C142.98 124.39 142.9 124.77 142.85 125.15C142.79 125.53 142.76 125.91 142.76 126.29C142.75 126.68 142.78 127.06 142.82 127.44C142.87 127.82 140.33 123.08 138.98 123.44C138.49 123.56 138.49 125.39 138.49 125.39C138.49 125.39 132.87 112.84 137.95 106.2C143.04 99.57 149 112.85 149 112.85Z" />
		<path id="Layer" class="shp13" d="M141.07 126.19C141.07 126.19 139.94 121.97 136.15 120.86C132.36 119.75 134.96 129.86 138.19 131.17C141.42 132.49 142.23 133.42 142.42 132.22" />
		<path id="Layer" class="shp3" d="M135.91 112.12C135.59 111.69 134.2 100.87 141.34 96.01C148.48 91.16 160.55 91.67 168.23 98.4C175.91 105.13 173.73 116.79 168.23 120.77L168.23 115.9C168.23 115.9 165.7 120.78 158.11 121.19L160.43 117.61C160.43 117.61 156.69 119.86 150.11 119.67C150.11 119.67 153.2 117.2 152.75 115.01C152.77 115.01 142.32 120.89 135.91 112.12Z" />
		<path id="Layer" class="shp13" d="M137.24 151.13C131.98 151.76 124.49 158.63 129.37 170.83C132.49 178.57 158.09 173.97 158.09 173.97C167.58 170.06 181.45 155.97 191.63 149.44C191.63 149.44 189.48 135.94 187 137.85C175.5 146.66 166.04 147.27 149.99 154.98C150.02 154.94 140.55 150.73 137.24 151.13Z" />
		<path id="Layer" class="shp13" d="M149 166.11C148.84 171.15 150.91 172.04 154.4 173.23" />
		<path id="Layer" class="shp13" d="M186.24 138.84C186.47 138.11 190.74 130.62 191.94 128.72C193.14 126.82 198.52 125.1 200.6 123.95C202.68 122.81 202.85 121.06 203.98 122.31C205.1 123.56 203.98 126.41 197.74 129.43C198.3 129.46 198.85 129.48 199.41 129.5C199.96 129.51 200.51 129.52 201.07 129.52C201.62 129.52 202.18 129.51 202.73 129.5C203.28 129.48 203.84 129.46 204.39 129.43C206.06 129.18 207.54 127.68 208.28 128.72C209.03 129.77 209.17 131.65 205.46 132.79C205.02 132.95 204.57 133.1 204.12 133.22C203.67 133.35 203.22 133.46 202.76 133.56C202.3 133.65 201.83 133.73 201.37 133.79C200.91 133.85 200.44 133.89 199.97 133.92C200.42 134.02 200.88 134.12 201.33 134.23C201.78 134.35 202.22 134.47 202.67 134.6C203.12 134.73 203.56 134.86 204 135.01C204.44 135.16 204.88 135.31 205.31 135.47C205.91 135.91 206.8 136.93 207.69 137.09C208.58 137.25 209.54 138.21 207.91 139.34C207.62 139.5 207.32 139.62 207 139.71C206.68 139.79 206.35 139.84 206.02 139.84C205.7 139.85 205.37 139.82 205.05 139.74C204.73 139.67 204.41 139.56 204.12 139.41C203.83 139.26 208.43 141.49 207.09 142.78C205.75 144.07 201.47 143.82 201.47 143.82C201.47 143.82 195.11 151.57 189.74 149.95" />
		<path id="Layer" class="shp2" d="M193.85 128.71C194.03 128.75 194.21 128.82 194.37 128.91C194.53 129 194.68 129.11 194.82 129.24C194.95 129.37 195.06 129.52 195.15 129.68C195.25 129.84 195.31 130.02 195.36 130.2C195.73 131.52 196.82 131.6 197.49 133.09C198.15 134.57 197.96 136.87 198.61 137.65C199.26 138.44 198.61 141.76 198.61 141.76" />
		<path id="Layer" class="shp14" d="M138.35 150.17C135.59 146.66 129.41 148.25 129.41 148.25" />
		<path id="Layer" class="shp14" d="M126.03 141.78C126.03 141.78 132.4 142.71 134.28 148.01" />
		<path id="Layer" class="shp14" d="M137.24 175.32C137.24 175.32 131.04 180.12 121.59 173.23" />
		<path id="Layer" class="shp14" d="M129.41 176.77C129.41 176.77 126.26 181.12 118.59 181.07" />
		<path id="Layer" class="shp14" d="M168.86 231.53C168.86 231.53 152.62 244.48 136.12 242.78" />
		<path id="Layer" class="shp14" d="M124.96 203.09C124.96 203.09 150.17 221.58 168.83 222.76" />
	</g>
	<g id="freepik--character-1--inject-276">
		<path id="Layer" class="shp3" d="M125.63 339.97C126.7 339.38 127.82 338.88 128.99 338.5C130.15 338.12 131.35 337.86 132.57 337.7C133.78 337.55 135.01 337.52 136.23 337.6C137.46 337.68 138.67 337.88 139.85 338.19C148.08 340.26 169.43 370.81 172.4 373.79C175.37 376.77 180.93 378.29 186.05 383.68C194.14 392.12 205.92 399.59 207.11 399.59C208.31 399.59 209.26 398.85 210.75 398.56C212.23 398.26 223.73 397.22 223.73 397.22C223.73 397.22 227.58 398.07 223.73 399.73C219.87 401.38 220.16 402.85 220.16 402.85C220.16 402.85 219.38 404.1 220.94 405.29C222.49 406.49 223.4 405.83 225.61 408.97C227.83 412.11 222.49 410.33 222.49 410.33C222.49 410.33 223.67 413.71 221.3 413.37C218.92 413.03 221 416.67 217.15 416.17C213.29 415.68 205.03 410.47 202.96 405.01C202.96 405.01 169.29 388.92 164.25 384.77C159.21 380.62 138 358.36 136.55 358.07" />
		<path id="Layer" class="shp1" d="M213.73 370.11L238.47 370.11C238.75 370.11 239.02 370.17 239.28 370.27C239.54 370.38 239.77 370.54 239.97 370.73C240.16 370.93 240.32 371.16 240.42 371.42C240.53 371.67 240.59 371.95 240.59 372.23L240.59 389.89L211.61 389.89L211.61 372.23C211.61 371.95 211.67 371.67 211.77 371.42C211.88 371.16 212.03 370.93 212.23 370.73C212.43 370.54 212.66 370.38 212.92 370.27C213.17 370.17 213.45 370.11 213.73 370.11Z" />
		<g id="Layer">
			<path id="Layer" class="shp8" d="M213.73 370.11L238.47 370.11C238.75 370.11 239.02 370.17 239.28 370.27C239.54 370.38 239.77 370.54 239.97 370.73C240.16 370.93 240.32 371.16 240.42 371.42C240.53 371.67 240.59 371.95 240.59 372.23L240.59 389.89L211.61 389.89L211.61 372.23C211.61 371.95 211.67 371.67 211.77 371.42C211.88 371.16 212.03 370.93 212.23 370.73C212.43 370.54 212.66 370.38 212.92 370.27C213.17 370.17 213.45 370.11 213.73 370.11Z" />
			<path id="Layer" class="shp9" d="M231.86 371.98L238.98 371.98L238.98 386.22L231.86 386.22L231.86 371.98Z" />
		</g>
		<path id="Layer" class="shp2" d="M213.73 370.11L238.47 370.11C238.75 370.11 239.02 370.17 239.28 370.27C239.54 370.38 239.77 370.54 239.97 370.73C240.16 370.93 240.32 371.16 240.42 371.42C240.53 371.67 240.59 371.95 240.59 372.23L240.59 389.89L211.61 389.89L211.61 372.23C211.61 371.95 211.67 371.67 211.77 371.42C211.88 371.16 212.03 370.93 212.23 370.73C212.43 370.54 212.66 370.38 212.92 370.27C213.17 370.17 213.45 370.11 213.73 370.11Z" />
		<path id="Layer" class="shp1" d="M256.47 370.11L281.21 370.11C281.49 370.11 281.76 370.17 282.02 370.27C282.28 370.38 282.51 370.54 282.71 370.73C282.9 370.93 283.06 371.16 283.16 371.42C283.27 371.67 283.32 371.95 283.32 372.23L283.32 389.89L254.35 389.89L254.35 372.23C254.35 371.95 254.41 371.67 254.51 371.42C254.62 371.16 254.77 370.93 254.97 370.73C255.17 370.54 255.4 370.38 255.66 370.27C255.91 370.17 256.19 370.11 256.47 370.11Z" />
		<g id="Layer">
			<path id="Layer" class="shp8" d="M256.47 370.11L281.21 370.11C281.49 370.11 281.76 370.17 282.02 370.27C282.28 370.38 282.51 370.54 282.71 370.73C282.9 370.93 283.06 371.16 283.16 371.42C283.27 371.67 283.32 371.95 283.32 372.23L283.32 389.89L254.35 389.89L254.35 372.23C254.35 371.95 254.41 371.67 254.51 371.42C254.62 371.16 254.77 370.93 254.97 370.73C255.17 370.54 255.4 370.38 255.66 370.27C255.91 370.17 256.19 370.11 256.47 370.11Z" />
			<path id="Layer" class="shp9" d="M276.95 371.98L281.24 371.98L281.24 386.22L276.95 386.22L276.95 371.98Z" />
		</g>
		<path id="Layer" class="shp2" d="M256.47 370.11L281.21 370.11C281.49 370.11 281.76 370.17 282.02 370.27C282.28 370.38 282.51 370.54 282.71 370.73C282.9 370.93 283.06 371.16 283.16 371.42C283.27 371.67 283.32 371.95 283.32 372.23L283.32 389.89L254.35 389.89L254.35 372.23C254.35 371.95 254.41 371.67 254.51 371.42C254.62 371.16 254.77 370.93 254.97 370.73C255.17 370.54 255.4 370.38 255.66 370.27C255.91 370.17 256.19 370.11 256.47 370.11Z" />
		<path id="Layer" class="shp5" d="M247.47 370.11L272.21 370.11C272.49 370.11 272.77 370.17 273.02 370.27C273.28 370.38 273.51 370.54 273.71 370.73C273.9 370.93 274.06 371.16 274.17 371.42C274.27 371.67 274.33 371.95 274.33 372.23L274.33 389.89L245.35 389.89L245.35 372.23C245.35 371.95 245.41 371.67 245.51 371.42C245.62 371.16 245.78 370.93 245.97 370.73C246.17 370.54 246.4 370.38 246.66 370.27C246.92 370.17 247.19 370.11 247.47 370.11Z" />
		<path id="Layer" class="shp5" d="M290.21 370.11L314.95 370.11C315.23 370.11 315.51 370.17 315.76 370.27C316.02 370.38 316.25 370.54 316.45 370.73C316.64 370.93 316.8 371.16 316.91 371.42C317.01 371.67 317.07 371.95 317.07 372.23L317.07 389.89L288.09 389.89L288.09 372.23C288.09 371.95 288.15 371.67 288.25 371.42C288.36 371.16 288.52 370.93 288.71 370.73C288.91 370.54 289.14 370.38 289.4 370.27C289.66 370.17 289.93 370.11 290.21 370.11Z" />
		<path id="Layer" class="shp9" d="M265.6 371.98L272.72 371.98L272.72 386.22L265.6 386.22L265.6 371.98Z" />
		<path id="Layer" class="shp9" d="M307.87 371.98L314.99 371.98L314.99 386.22L307.87 386.22L307.87 371.98Z" />
		<path id="Layer" class="shp1" d="M329.68 385.77L329.68 466.96L198.86 466.96L198.86 385.77C198.86 385.1 198.99 384.43 199.25 383.81C199.5 383.19 199.88 382.63 200.36 382.15C200.83 381.67 201.4 381.3 202.02 381.04C202.64 380.78 203.3 380.65 203.98 380.65L324.56 380.65C325.23 380.65 325.9 380.78 326.52 381.04C327.14 381.3 327.7 381.67 328.18 382.15C328.65 382.63 329.03 383.19 329.29 383.81C329.54 384.43 329.68 385.1 329.68 385.77Z" />
		<g id="Layer">
			<path id="Layer" class="shp8" d="M329.68 385.77L329.68 466.96L198.86 466.96L198.86 385.77C198.86 385.1 198.99 384.43 199.25 383.81C199.5 383.19 199.88 382.63 200.36 382.15C200.83 381.67 201.4 381.3 202.02 381.04C202.64 380.78 203.3 380.65 203.98 380.65L324.56 380.65C325.23 380.65 325.9 380.78 326.52 381.04C327.14 381.3 327.7 381.67 328.18 382.15C328.65 382.63 329.03 383.19 329.29 383.81C329.54 384.43 329.68 385.1 329.68 385.77Z" />
		</g>
		<path id="Layer" class="shp2" d="M329.68 385.77L329.68 466.96L198.86 466.96L198.86 385.77C198.86 385.1 198.99 384.43 199.25 383.81C199.5 383.19 199.88 382.63 200.36 382.15C200.83 381.67 201.4 381.3 202.02 381.04C202.64 380.78 203.3 380.65 203.98 380.65L324.56 380.65C325.23 380.65 325.9 380.78 326.52 381.04C327.14 381.3 327.7 381.67 328.18 382.15C328.65 382.63 329.03 383.19 329.29 383.81C329.54 384.43 329.68 385.1 329.68 385.77Z" />
		<path id="Layer" class="shp5" d="M329.68 385.77L329.68 466.96L232.6 466.96L232.6 385.77C232.6 385.1 232.73 384.43 232.99 383.81C233.25 383.19 233.62 382.63 234.1 382.15C234.57 381.67 235.14 381.3 235.76 381.04C236.38 380.78 237.04 380.65 237.72 380.65L324.56 380.65C325.23 380.65 325.9 380.78 326.52 381.04C327.14 381.3 327.7 381.67 328.18 382.15C328.65 382.63 329.03 383.19 329.29 383.81C329.54 384.43 329.68 385.1 329.68 385.77Z" />
		<path id="Layer" class="shp9" d="M323.11 388.66L240.12 388.66C239.85 388.66 239.57 388.6 239.31 388.5C239.06 388.39 238.83 388.24 238.63 388.04C238.43 387.84 238.28 387.61 238.17 387.35C238.06 387.1 238.01 386.82 238.01 386.54L238.01 386.54C238 386.26 238.05 385.98 238.16 385.72C238.26 385.46 238.42 385.22 238.61 385.02C238.81 384.82 239.04 384.66 239.3 384.55C239.56 384.44 239.84 384.39 240.12 384.39L323.11 384.39C323.38 384.39 323.66 384.44 323.92 384.55C324.17 384.65 324.41 384.81 324.6 385C324.8 385.2 324.95 385.43 325.06 385.69C325.17 385.95 325.22 386.22 325.22 386.5L325.22 386.5C325.23 386.78 325.18 387.06 325.07 387.32C324.97 387.58 324.82 387.82 324.62 388.02C324.42 388.23 324.19 388.39 323.93 388.49C323.67 388.6 323.39 388.66 323.11 388.66L323.11 388.66Z" />
		<path id="Layer" class="shp16" d="M169.49 466.96C162.74 466.96 153.26 462.62 142.34 458.03C131.01 453.26 118.11 448.23 105.02 447.47C100.14 447.19 103.1 466.96 103.1 466.96L92.41 466.96C92.41 466.96 81.86 452.88 80.64 440.27C80.64 440.27 89.25 434.95 91.32 434.65C91.5 434.63 91.68 434.61 91.86 434.6C92.04 434.59 92.22 434.58 92.39 434.57C92.57 434.56 92.75 434.55 92.93 434.55C93.11 434.55 93.29 434.55 93.47 434.55C95.79 434.55 98.88 434.65 98.88 434.65L98.88 434.65C98.39 434.36 90.5 429.61 86.15 424.79C82.56 420.8 80.92 414.52 80.79 410.76C80.83 410.14 80.87 409.52 80.92 408.9C80.98 408.28 81.04 407.66 81.1 407.04C81.17 406.42 81.25 405.8 81.33 405.18C81.42 404.57 81.51 403.95 81.62 403.34L137.76 404.27C137.76 404.27 138.37 404.7 139.45 405.5C145.96 410.24 169.76 427.92 181.66 441.25C185.51 445.56 188.11 449.41 188.49 452.22C190.28 465.19 179.67 466.96 169.49 466.96Z" />
		<path id="Layer" class="shp3" d="M181.67 441.23L154.36 447.47C153.2 448.14 152.06 448.86 150.97 449.65C149.87 450.43 148.82 451.26 147.81 452.15C146.8 453.03 145.83 453.97 144.92 454.95C144 455.94 143.13 456.96 142.32 458.03C130.99 453.26 118.09 448.23 105 447.47C100.12 447.19 103.08 466.96 103.08 466.96L92.39 466.96C92.39 466.96 81.86 452.88 80.64 440.27C80.64 440.27 90.58 454.44 93.01 461.64C93.01 461.64 96.87 448.33 103.13 442.98C102.42 442.19 101.69 441.41 100.94 440.66C100.18 439.91 99.41 439.19 98.61 438.49C97.81 437.78 96.99 437.11 96.14 436.46C95.3 435.8 94.44 435.18 93.56 434.58C95.88 434.58 98.97 434.68 98.97 434.68L98.97 434.68C98.48 434.39 90.59 429.64 86.24 424.82C82.65 420.84 81.2 414.54 80.88 410.79C80.73 408.95 80.95 403.37 80.95 403.37C80.95 403.37 122.83 409.34 139.54 405.53C145.97 410.25 169.77 427.9 181.67 441.23Z" />
		<path id="Layer" class="shp2" d="M137.77 440.27C137.77 440.27 160.02 451.42 165.96 455.78C171.9 460.15 173.66 458.97 173.66 458.97" />
		<path id="Layer" class="shp2" d="M86.16 439.09C86.16 439.09 91.5 447.25 91.78 449.69" />
		<path id="Layer" class="shp3" d="M175.64 282.57C175.64 282.57 187.49 277.42 186.36 299.33C185.24 321.24 189.25 322.37 189.25 322.37C189.25 322.37 159.45 334.6 151.88 324.14C144.31 313.68 151.49 285.06 175.64 282.57Z" />
		<path id="Layer" class="shp13" d="M173.99 322.37C173.99 322.37 161.73 328.15 160.62 333.49C159.5 338.83 144.15 330.79 144.15 330.79L155.27 314.8L173.99 322.37Z" />
		<path id="Layer" class="shp16" d="M93.6 381.01C65.49 416.82 88.31 434.1 120.18 431.24L113.79 441.36L129.83 444.14C129.83 444.14 142.13 436.11 158.88 427.53C187.41 412.91 198.94 413.79 196 399.15C193.07 384.52 158.11 375.03 123.06 390.45C123.03 390.44 104 367.83 93.6 381.01Z" />
		<path id="Layer" class="shp13" d="M103.41 458.97C103.41 458.97 110.73 438.72 113.79 437.6C116.85 436.47 128.42 440.86 129.83 444.12C129.83 444.12 133.74 438.14 135.33 440.68C136.93 443.22 134.62 447.43 135.33 450.64C136.04 453.86 143.95 458.36 147.11 458.96C150.27 459.55 152.07 461.33 152.07 463.11L152.07 466.96L103.41 466.96C103.14 466.33 102.94 465.68 102.8 465.01C102.66 464.33 102.59 463.65 102.59 462.96C102.59 462.28 102.66 461.6 102.8 460.92C102.94 460.25 103.14 459.6 103.41 458.97Z" />
		<path id="Layer" class="shp2" d="M135.33 447.47C135.33 447.47 128.89 450.65 126.54 449.72C124.19 448.79 127.74 455.06 128.63 455.66C129.52 456.26 135.38 453.58 135.38 453.58" />
		<path id="Layer" class="shp2" d="M109.5 444.13C109.5 444.13 118.25 444.3 120.91 447.51" />
		<path id="Layer" class="shp2" d="M103.41 458.97C103.41 458.97 117.36 462.23 118.54 462.23C119.02 462.13 119.5 462.03 119.97 461.91C120.45 461.8 120.92 461.67 121.39 461.53C121.86 461.4 122.32 461.25 122.79 461.1C123.25 460.94 123.71 460.77 124.16 460.6C124.62 460.42 127.99 462.52 130.53 463.71C133.07 464.9 149.65 463.71 149.65 463.71" />
		<path id="Layer" class="shp2" d="M120.18 431.26C133.5 429.82 159.37 413.41 168.37 407.71C177.36 402.01 179.61 403.51 179.61 403.51" />
		<path id="Layer" class="shp5" d="M80.87 403.31L83 387.17L88.13 383.31C96.44 363.14 134.1 325.47 144.36 325.6C159.78 325.78 162.51 341.96 164.41 359.67C166.31 377.39 142.28 374.72 142.28 374.72L142.28 379.17L128.62 386.24L136.9 385.98C136.9 385.98 113.09 409.13 80.87 403.31Z" />
		<path id="Layer" class="shp13" d="M147.61 294.41C150.84 284.28 165.61 281.58 170.92 283.24C172 283.66 173.03 284.18 174.02 284.79C175 285.4 175.92 286.1 176.78 286.88C177.63 287.66 178.42 288.52 179.11 289.44C179.81 290.36 180.42 291.35 180.94 292.38C182.29 295.3 179.47 300.45 181.48 303.45C184.36 307.76 184.11 316.85 183.08 322.57C182.52 325.61 169.88 327.41 159.56 320.32C148.47 312.65 144.49 304.15 147.61 294.41Z" />
		<path id="Layer" class="shp3" d="M162.54 280.21C162.54 280.21 175.54 278.1 175.63 281.44C176.21 303.63 162.9 308.29 162.9 308.29C162.9 308.29 157.47 303.96 156.25 306.92C155.04 309.89 158.16 318.1 162.01 318.27C161.57 318.96 161.23 319.7 160.99 320.48C160.75 321.26 160.63 322.07 160.61 322.88C160.6 323.7 160.7 324.51 160.91 325.3C161.12 326.09 161.44 326.84 161.85 327.54C162.27 328.24 139.83 331.22 138.01 321.02C138.22 320.13 138.42 319.24 138.6 318.35C138.78 317.46 138.95 316.56 139.1 315.66C139.26 314.76 139.39 313.86 139.51 312.96C139.64 312.05 139.74 311.15 139.83 310.24C141.26 295.95 137.92 286.33 162.54 280.21Z" />
		<path id="Layer" class="shp13" d="M179.91 302.83C182.62 305.27 184.56 305.27 184.53 306.15C184.43 308.88 181.15 310.24 181.15 310.24" />
		<path id="Layer" class="shp2" d="M181.09 314.8C180.61 314.96 180.12 315.08 179.63 315.17C179.14 315.26 178.64 315.31 178.13 315.32C177.63 315.33 177.13 315.31 176.63 315.25C176.13 315.18 175.64 315.08 175.16 314.94" />
		<path id="Layer" class="shp3" d="M173.88 289.21C173.88 289.21 182.53 286.7 180.94 300.74C180.94 300.74 184.54 295.85 184.53 290.35C184.53 280.82 171.79 282.73 171.79 282.73L173.45 289.48" />
		<path id="Layer" class="shp2" d="M181.74 296.08C181.58 295.97 181.4 295.88 181.22 295.81C181.04 295.74 180.85 295.68 180.66 295.64C180.46 295.61 180.27 295.59 180.07 295.6C179.88 295.6 179.68 295.62 179.49 295.67" />
		<path id="Layer" class="shp2" d="M175.91 295.92C175.91 295.92 171.27 296.19 169.25 299.3" />
		<path id="Layer" class="shp3" d="M174.8 303.31C174.87 304.06 174.55 304.7 174.09 304.74C173.63 304.79 173.2 304.21 173.12 303.47C173.04 302.73 173.37 302.09 173.83 302.04C174.29 302 174.73 302.57 174.8 303.31Z" />
		<path id="Layer" class="shp2" d="M120.91 434.64C120.91 434.64 131.26 435.76 133.51 440.26" />
		<path id="Layer" class="shp13" d="M147.11 333.19C148.18 332.59 149.31 332.1 150.47 331.72C151.64 331.34 152.83 331.07 154.05 330.92C155.27 330.77 156.49 330.74 157.72 330.82C158.94 330.9 160.15 331.1 161.34 331.41C169.57 333.49 190.92 364.03 193.89 367.01C196.86 369.99 202.41 371.51 207.53 376.89C215.63 385.34 227.4 392.81 228.6 392.81C229.79 392.81 230.74 392.07 232.23 391.77C233.71 391.48 245.21 390.44 245.21 390.44C245.21 390.44 249.07 391.3 245.21 392.94C241.35 394.59 241.64 396.08 241.64 396.08C241.64 396.08 240.88 397.32 242.42 398.51C243.96 399.7 244.88 399.05 247.1 402.19C249.31 405.33 243.97 403.55 243.97 403.55C243.97 403.55 245.15 406.92 242.78 406.59C240.41 406.25 242.49 409.88 238.63 409.39C234.77 408.89 226.51 403.69 224.45 398.23C224.45 398.23 190.77 382.14 185.73 377.99C180.69 373.84 159.5 351.58 158.01 351.28" />
		<path id="Layer" class="shp5" d="M142.27 329.93C142.27 329.93 158.87 325.48 164.67 328.74C170.46 332.01 181.44 347.13 181.44 347.13C181.44 347.13 168.05 359.11 163.91 358.02C159.77 356.93 147.11 355.14 147.11 355.14" />
		<path id="Layer" class="shp2" d="M156.67 356.6C156.67 356.6 150.65 359.91 148.44 359.91" />
		<path id="Layer" class="shp2" d="M147.11 340.01C147.61 340.9 147.45 350.63 158.01 353.66" />
		<path id="Layer" class="shp2" d="M90.66 383.62C90.66 383.62 113.15 387.48 120.91 380.65" />
		<path id="Layer" class="shp2" d="M128.61 386.24C128.61 386.24 122.98 385.25 120.91 388.14C118.84 391.03 107.57 393.77 107.57 393.77" />
		<path id="Layer" class="shp2" d="M83.39 407.71C83.39 407.71 80.14 421.73 94.01 427.96" />
		<path id="Layer" class="shp2" d="M90.66 408.68C90.66 408.68 90.74 415.59 92.91 419.36L99.8 421.61L107.52 417.32C107.52 417.32 105.88 408.49 105.73 406.7" />
	</g>
</svg>
